<svg width="47" height="51" viewBox="0 0 47 51" fill="none" xmlns="http://www.w3.org/2000/svg">
<path d="M0.0483931 27.4949C0.113276 22.941 0.718845 19.632 2.36253 15.6012C5.92295 6.86773 13.3452 0.364624 22.8721 0.364624C31.8908 0.364624 39.5172 6.22026 43.6994 14.2211C45.2795 17.2422 46.4677 22.9342 46.4069 28.2073C46.246 42.2084 36.4096 50.3646 22.8721 50.3646C9.33469 50.3646 -0.151661 41.4987 0.0483931 27.4949Z" fill="#424242"/>
<path d="M4.70508 32.7788C4.70508 23.6088 13.1344 16.1716 23.5331 16.1716C33.9305 16.1716 42.3599 23.6088 42.3599 32.7788C42.3599 41.9516 33.9305 49.3887 23.5331 49.3887C13.1344 49.3887 4.70508 41.9516 4.70508 32.7788Z" fill="white"/>
<path d="M9.68347 17.4666C10.823 20.0267 12.0828 22.5355 13.4588 24.9794C13.9806 25.9067 14.524 27.0583 13.9806 27.9762C13.79 28.2979 13.4845 28.5358 13.1641 28.7304C11.8597 29.5117 10.2269 29.6131 8.74538 29.267C7.2639 28.9169 5.91218 28.1586 4.65238 27.3043C4.41042 27.1421 4.16441 26.9691 4.00896 26.7231C3.70888 26.246 3.81026 25.6296 3.95895 25.0862C4.8227 21.9164 6.94895 19.1062 9.68347 17.4666Z" fill="#424242"/>
<path d="M35.7418 17.6949C34.6023 20.2551 33.3425 22.7639 31.9678 25.2078C31.4447 26.1351 30.9013 27.2867 31.4447 28.2045C31.6353 28.5263 31.9408 28.7642 32.2611 28.9588C33.5656 29.7401 35.1984 29.8401 36.6799 29.4941C38.1614 29.1453 39.5131 28.387 40.7729 27.5327C41.0149 27.3705 41.2609 27.1975 41.4163 26.9474C41.7164 26.4743 41.615 25.858 41.4677 25.3146C40.6026 22.1448 38.4777 19.3346 35.7418 17.6949Z" fill="#424242"/>
<path d="M8.51686 39.4089C7.50712 40.6376 6.95022 42.2813 7.2138 43.852C7.47739 45.4227 8.63851 46.8596 10.1795 47.257C11.1824 47.5165 12.2503 47.3394 13.2357 47.0245C14.0494 46.7623 14.8483 46.3959 15.4566 45.7971C16.5406 44.7306 16.8542 43.0045 16.3541 41.5676C15.8526 40.1321 14.6145 39.0102 13.1803 38.506C11.6042 37.9491 9.5712 38.1221 8.51686 39.4089Z" fill="#FFD1D6"/>
<path d="M33.0276 39.0521C32.0192 40.2849 31.4609 41.9286 31.7259 43.4952C31.9895 45.0659 33.1506 46.5028 34.6915 46.9002C35.6932 47.1597 36.761 46.9867 37.7478 46.669C38.5602 46.4095 39.3604 46.0418 39.9686 45.4403C41.0527 44.3738 41.3663 42.6477 40.8648 41.2122C40.3647 39.7793 39.1252 38.6574 37.691 38.1492C36.1163 37.5923 34.0819 37.7653 33.0276 39.0521Z" fill="#FFD1D6"/>
<path d="M26.1352 5.57004C26.1366 5.35106 26.4664 5.09558 26.6773 5.13749C26.8895 5.17804 27.0652 5.3416 27.1612 5.53489C27.2558 5.72819 27.2801 5.94987 27.2707 6.16885C27.2599 6.41756 27.1896 6.69466 26.9814 6.8366C26.8206 6.94744 26.3718 6.81497 26.2082 6.71089C26.0447 6.60815 26.1339 5.67006 26.1352 5.57004Z" fill="black"/>
<path d="M26.1973 5.57271C26.1973 5.58623 26.1946 5.62137 26.1919 5.67003C26.1392 6.49999 26.2095 6.63922 26.2419 6.65949C26.4109 6.76628 26.8218 6.87036 26.9462 6.78385C27.1476 6.64868 27.2003 6.37293 27.2084 6.16476C27.2192 5.92281 27.1854 5.72546 27.1043 5.56325C27.0097 5.3686 26.8462 5.23343 26.6664 5.19964C26.5839 5.18206 26.4636 5.22667 26.3582 5.31318C26.2595 5.39293 26.1973 5.49296 26.1973 5.57271ZM26.8002 6.9393C26.5772 6.9393 26.292 6.83927 26.1757 6.76357C26.0541 6.68788 26.023 6.36887 26.0676 5.66328C26.0703 5.61732 26.0716 5.58353 26.0716 5.57001C26.0743 5.45241 26.1514 5.31994 26.2798 5.21721C26.4136 5.10637 26.5704 5.05365 26.6894 5.07798C26.9083 5.11989 27.1043 5.28209 27.2165 5.50783C27.3057 5.69031 27.3436 5.90523 27.3328 6.16882C27.3233 6.40672 27.2598 6.72167 27.0165 6.88793C26.9624 6.92578 26.8867 6.9393 26.8002 6.9393Z" fill="white"/>
<path d="M20.5864 5.39301C20.585 5.17539 20.2552 4.91856 20.043 4.96047C19.8321 5.00237 19.6564 5.16457 19.5604 5.35787C19.4658 5.55252 19.4415 5.7742 19.4509 5.98777C19.4617 6.24054 19.532 6.51764 19.7402 6.65957C19.9011 6.77041 20.3498 6.6393 20.5134 6.53522C20.6769 6.42843 20.5877 5.49304 20.5864 5.39301Z" fill="black"/>
<path d="M20.0917 5.01993C20.0781 5.01993 20.0673 5.01993 20.0552 5.02263C19.8754 5.05777 19.7118 5.19295 19.6172 5.38624C19.5361 5.54845 19.5023 5.7458 19.5131 5.98505C19.5212 6.19592 19.5739 6.46897 19.7754 6.60819C19.8997 6.69065 20.3106 6.59062 20.4796 6.47978C20.512 6.46221 20.5823 6.32433 20.5296 5.49303C20.5269 5.44437 20.5242 5.41057 20.5242 5.393C20.5242 5.31325 20.462 5.21322 20.362 5.13347C20.2728 5.06048 20.1701 5.01993 20.0917 5.01993ZM19.9213 6.76364C19.8348 6.76364 19.7591 6.74607 19.7051 6.71092C19.4618 6.54601 19.3996 6.22701 19.3888 5.99181C19.3766 5.72823 19.4158 5.5106 19.505 5.33082C19.6172 5.10238 19.8132 4.94288 20.0308 4.89827C20.1511 4.878 20.3079 4.92936 20.4404 5.03615C20.5702 5.14428 20.6472 5.2754 20.6486 5.393C20.6499 5.40652 20.6513 5.43761 20.654 5.48357C20.6986 6.18916 20.6675 6.51087 20.5458 6.58657C20.4296 6.66361 20.1444 6.76364 19.9213 6.76364Z" fill="white"/>
<path d="M19.9713 8.22753C19.9538 8.07479 21.6272 7.55573 22.4423 7.26916C22.6383 7.20293 22.8383 7.13399 23.0451 7.12994C23.2857 7.12318 23.5196 7.19888 23.748 7.27863C24.5428 7.54491 26.392 8.09506 26.4069 8.33432C26.4177 8.52085 24.4725 9.4238 23.0032 9.70496C21.488 9.17509 20.0078 8.52761 19.9713 8.22753Z" fill="#FFD1D6"/>
</svg>
