<svg width="47" height="51" viewBox="0 0 47 51" fill="none" xmlns="http://www.w3.org/2000/svg">
<path d="M0.034202 27.6057C-0.0739353 21.4553 0.703302 19.7414 2.34699 15.7105C5.90876 6.97711 13.331 0.473999 22.8579 0.473999C31.8766 0.473999 39.2029 6.49455 43.6852 14.3304C46.6103 19.4413 46.317 24.8509 46.3927 28.3153C46.6968 42.315 36.3954 50.474 22.8579 50.474C9.3205 50.474 0.277511 41.6067 0.034202 27.6057Z" fill="#424242"/>
<path d="M4.69086 32.8895C4.69086 23.7168 7.05501 3.2288 23.0201 3.08011C37.8742 2.94224 42.3456 23.7168 42.3456 32.8895C42.3456 42.0609 33.9163 49.4967 23.5176 49.4967C13.1202 49.4967 4.69086 42.0609 4.69086 32.8895Z" fill="white"/>
<path d="M8.5027 40.4294C7.49296 41.6608 6.93606 43.3045 7.19964 44.8738C7.46323 46.4445 8.62435 47.88 10.1653 48.2802C11.1683 48.5397 12.2361 48.364 13.2215 48.0477C14.0339 47.7868 14.8341 47.4178 15.4424 46.8203C16.5265 45.7538 16.8401 44.0263 16.3386 42.5908C15.8385 41.1553 14.5989 40.0347 13.1661 39.5278C11.59 38.9695 9.55568 39.1425 8.5027 40.4294Z" fill="#FFD1D6"/>
<path d="M33.0134 40.0752C32.005 41.3067 31.4468 42.949 31.7117 44.5197C31.9753 46.089 33.1364 47.5245 34.676 47.9247C35.679 48.1842 36.7469 48.0085 37.7323 47.6922C38.546 47.4313 39.3449 47.0636 39.9545 46.4648C41.0386 45.3983 41.3522 43.6722 40.8507 42.2353C40.3505 40.7998 39.111 39.6792 37.6768 39.1723C36.1021 38.6154 34.0678 38.7884 33.0134 40.0752Z" fill="#FFD1D6"/>
<path d="M6.86576 16.3485C9.23396 18.1193 11.7238 19.7806 14.3259 21.3229C15.314 21.9095 16.4156 22.6895 16.1291 23.8087C16.0277 24.202 15.7587 24.5778 15.4519 24.9184C14.2069 26.3053 12.2997 27.2326 10.3978 27.6705C8.49593 28.1071 6.58595 28.099 4.74762 27.9598C4.39482 27.9341 4.03391 27.899 3.7514 27.753C3.20666 27.4691 3.085 26.85 3.04716 26.2769C2.82683 22.9192 4.25289 19.2507 6.86576 16.3485Z" fill="#424242"/>
<path d="M39.2813 16.3485C36.9131 18.1193 34.4232 19.7806 31.8212 21.3229C30.8331 21.9095 29.7314 22.6895 30.018 23.8087C30.118 24.202 30.387 24.5778 30.6938 24.9184C31.9401 26.3053 33.846 27.2326 35.7479 27.6705C37.6511 28.1071 39.5611 28.099 41.3994 27.9598C41.7509 27.9341 42.1131 27.899 42.3956 27.753C42.9404 27.4691 43.062 26.85 43.0999 26.2769C43.3202 22.9192 41.8942 19.2507 39.2813 16.3485Z" fill="#424242"/>
<path d="M26.121 5.67946C26.1224 5.46183 26.4522 5.20501 26.6644 5.24691C26.8753 5.28881 27.051 5.45102 27.1456 5.64432C27.2416 5.83761 27.2659 6.05929 27.2565 6.27557C27.2456 6.52834 27.1753 6.80409 26.9672 6.94602C26.8063 7.05686 26.3576 6.92574 26.194 6.82031C26.0304 6.71623 26.1197 5.77949 26.121 5.67946Z" fill="black"/>
<path d="M20.5722 5.50239C20.5709 5.28341 20.241 5.02793 20.0288 5.06984C19.8166 5.11174 19.6422 5.27259 19.5463 5.46589C19.4503 5.66054 19.4273 5.88222 19.4368 6.09849C19.4476 6.34991 19.5179 6.62566 19.726 6.76895C19.8869 6.87843 20.3357 6.74867 20.4992 6.64324C20.6628 6.53915 20.5736 5.60106 20.5722 5.50239Z" fill="black"/>
<path d="M19.9572 8.33556C19.9396 8.18552 21.6117 7.66376 22.4281 7.3799C22.6241 7.31096 22.8228 7.24473 23.031 7.23797C23.2716 7.23256 23.5041 7.30961 23.7325 7.38666C24.5287 7.6543 26.3765 8.2058 26.3913 8.44235C26.4035 8.63159 24.4584 9.53319 22.9877 9.81434C21.4738 9.28582 19.9937 8.63565 19.9572 8.33556Z" fill="#FFD1D6"/>
<path d="M23.5243 12.6868C21.8131 12.6868 20.1018 12.3772 18.5676 11.7541C15.3992 10.4713 13.1945 7.94628 12.816 5.16715L13.5568 5.06712C13.8947 7.54347 15.9709 9.89681 18.8474 11.062C21.759 12.242 25.5019 12.2123 28.3824 10.989C31.2264 9.78056 33.2418 7.39613 33.5162 4.91708L34.2583 4.99954C33.9501 7.78543 31.8104 10.3442 28.6744 11.677C27.0915 12.3488 25.3086 12.6868 23.5243 12.6868Z" fill="#424242"/>
</svg>
