<svg width="48" height="51" viewBox="0 0 48 51" fill="none" xmlns="http://www.w3.org/2000/svg">
<path d="M0.286209 27.3616C0.298371 22.021 0.968641 19.498 2.64161 15.467C6.26729 6.73318 13.824 0.229126 23.524 0.229126C32.7065 0.229126 40.5065 6.06832 44.7295 14.0872C47.1511 18.6859 47.8551 22.9237 47.9497 28.0724C48.2078 42.0724 37.3065 50.2291 23.524 50.2291C9.74161 50.2291 0.255128 41.3643 0.286209 27.3616Z" fill="#4F4F4F"/>
<path d="M4.79565 32.4589C4.79565 26.7346 5.47674 20.44 10.5632 17.4548C7.4416 16.0008 6.60511 9.14401 10.1754 7.7305C13.7497 6.31564 15.0943 17.04 18.674 16.4927C20.3875 16.2305 22.6173 15.9224 23.943 15.8508C25.7754 15.7548 27.52 16.2305 29.2321 16.4927C32.8132 17.04 34.1565 6.31564 37.7308 7.7305C41.3024 9.14401 39.4524 16.1251 36.3294 17.5791C41.4159 20.5643 43.1119 26.7346 43.1119 32.4589C43.1119 41.6305 34.5213 49.4548 23.943 49.067C12.9078 48.6616 4.79565 41.6305 4.79565 32.4589Z" fill="white"/>
<path d="M7.37406 20.4345C7.6092 19.8778 9.13217 18.1521 10.5633 17.3291C6.37406 16.7602 6.60379 9.01832 10.1754 7.60616C13.7497 6.19129 15.093 16.9143 18.6741 16.367C20.3876 16.1048 22.6173 15.798 23.943 15.7278C25.7754 15.6291 27.52 16.1048 29.2322 16.367C32.8133 16.9143 34.1565 6.19129 37.7308 7.60616C41.3024 9.01832 39.7849 16.9129 36.3295 17.4548C38.1727 18.894 39.643 20.0062 40.3646 21.5197C41.1984 23.2724 6.22677 23.1589 7.37406 20.4345Z" fill="#FFFD8C"/>
<path d="M8.9078 40.6427C7.88077 41.8737 7.3132 43.517 7.58212 45.0873C7.84969 46.6575 9.03212 48.0927 10.601 48.4927C11.6213 48.7521 12.7091 48.5764 13.7132 48.2602C14.5402 47.9994 15.3551 47.6319 15.974 47.0332C17.0781 45.967 17.397 44.2386 16.8875 42.8035C16.3767 41.3683 15.1159 40.2481 13.6564 39.7413C12.0524 39.1832 9.98077 39.3562 8.9078 40.6427Z" fill="#383838"/>
<path d="M33.8632 40.2873C32.8362 41.5183 32.2686 43.1629 32.5376 44.7319C32.8065 46.3021 33.9889 47.7386 35.5578 48.1373C36.5781 48.3967 37.6646 48.2224 38.6686 47.9048C39.4957 47.644 40.3105 47.2764 40.9295 46.6778C42.0335 45.6116 42.3538 43.8846 41.843 42.4494C41.3322 41.0129 40.0714 39.8927 38.6119 39.3859C37.0078 38.8278 34.9376 39.0008 33.8632 40.2873Z" fill="#383838"/>
<path d="M7.48898 19.2278C8.64979 21.7899 14.2079 28.4967 15.6079 30.9399C16.1403 31.867 16.693 33.0183 16.1403 33.9345C15.9457 34.2562 15.6349 34.4954 15.3093 34.6872C13.9809 35.471 12.3174 35.5724 10.8093 35.2251C9.30114 34.8764 3.64979 29.9183 2.36736 29.0656C2.12141 28.9021 1.87141 28.7291 1.71331 28.4818C1.40655 28.0075 1.5106 27.3899 1.6606 26.8481C2.54033 23.6764 4.7052 20.8656 7.48898 19.2278Z" fill="#4F4F4F"/>
<path d="M39.297 19.2278C38.1375 21.7899 32.5794 28.4967 31.178 30.9399C30.647 31.867 30.0943 33.0183 30.647 33.9345C30.8416 34.2562 31.1524 34.4954 31.478 34.6872C32.8064 35.471 34.4686 35.5724 35.9767 35.2251C37.4848 34.8764 43.1362 29.9183 44.4199 29.0656C44.6659 28.9021 44.9159 28.7291 45.074 28.4818C45.3794 28.0075 45.2767 27.3899 45.1253 26.8481C44.247 23.6764 42.0821 20.8656 39.297 19.2278Z" fill="#4F4F4F"/>
<path d="M26.8456 5.4359C26.8483 5.21833 27.1835 4.96157 27.3983 5.00346C27.6146 5.04536 27.7929 5.20752 27.8902 5.40076C27.9875 5.594 28.0119 5.81698 28.0024 6.03184C27.9916 6.28454 27.92 6.56022 27.7078 6.70211C27.5443 6.81292 27.0875 6.68184 26.92 6.57644C26.7538 6.47238 26.8443 5.53454 26.8456 5.4359Z" fill="black"/>
<path d="M21.197 5.25885C21.1943 5.03993 20.8591 4.78453 20.6443 4.82642C20.4281 4.86696 20.2497 5.02912 20.1524 5.22237C20.0551 5.41696 20.0308 5.63858 20.0402 5.8548C20.051 6.10615 20.1227 6.38318 20.3362 6.52507C20.4983 6.63453 20.9551 6.5048 21.1227 6.39939C21.2889 6.29399 21.1983 5.3575 21.197 5.25885Z" fill="black"/>
<path d="M20.5713 8.09129C20.5524 7.94264 22.2565 7.41967 23.0862 7.13588C23.2862 7.06831 23.4889 7.00075 23.6997 6.99534C23.9443 6.98859 24.1821 7.06696 24.4146 7.14264C25.2254 7.41156 27.1065 7.96156 27.1227 8.19804C27.1335 8.38723 25.1524 9.28994 23.6565 9.56967C22.1146 9.04264 20.6078 8.39264 20.5713 8.09129Z" fill="#FFAE00"/>
</svg>
