<svg width="48" height="51" viewBox="0 0 48 51" fill="none" xmlns="http://www.w3.org/2000/svg">
<path d="M1.4037 27.5664C1.53715 21.1944 1.99801 20.0147 3.67952 15.9044C7.18132 7.34023 14.4803 0.962952 23.8505 0.962952C32.7189 0.962952 40.2759 6.67652 44.3329 14.5502C45.4877 16.7923 47.2439 23.1197 46.9948 28.2639C46.3293 41.9793 37.1638 49.99 23.8505 49.99C10.5372 49.99 1.11722 41.2942 1.4037 27.5664Z" fill="#BABABA"/>
<path d="M18.2615 2.21743C18.0622 2.21743 17.8807 2.08932 17.8202 1.89003C17.749 1.64803 17.8878 1.3918 18.1316 1.32063C18.4323 1.23166 18.7384 1.14981 19.0391 1.07686C19.2828 1.01636 19.5284 1.16404 19.5907 1.40604C19.548 1.16049 19.7081 0.923829 19.9554 0.875786C20.2597 0.817066 20.5729 0.763685 20.8825 0.719201C21.1298 0.681834 21.3629 0.852654 21.4021 1.09999C21.3807 0.850875 21.564 0.630232 21.8149 0.605321C22.1263 0.573292 22.4412 0.55016 22.7508 0.534146C22.9982 0.521691 23.217 0.712083 23.233 0.962975C23.233 0.710304 23.4377 0.507456 23.6903 0.505676H23.8523C24.1103 0.505676 24.3701 0.509235 24.6281 0.519911C24.879 0.528808 25.0765 0.738774 25.0694 0.989666C25.0925 0.740553 25.3078 0.555499 25.564 0.575072C25.8736 0.599983 26.1886 0.633791 26.4982 0.672937C26.7491 0.704966 26.9253 0.930947 26.8968 1.18184C26.9413 0.934506 27.1761 0.767244 27.427 0.813508C27.7295 0.86511 28.0409 0.925608 28.3487 0.993225C28.5961 1.04839 28.7527 1.29216 28.6993 1.53949C28.6441 1.78683 28.3986 1.94341 28.1512 1.88825C27.8559 1.82419 27.5605 1.76547 27.2687 1.71387C27.0285 1.67295 26.863 1.44874 26.8914 1.21031C26.8487 1.44697 26.6245 1.61245 26.3825 1.58042C26.0854 1.54305 25.7865 1.5128 25.4893 1.48789C25.2455 1.46832 25.0605 1.26013 25.0676 1.01814C25.0462 1.26013 24.838 1.45052 24.5943 1.43451C24.3469 1.42561 24.0996 1.42027 23.8505 1.42027H23.6957C23.4644 1.42739 23.2491 1.23344 23.2348 0.991445C23.2331 1.23344 23.0444 1.43629 22.7989 1.44874C22.5035 1.46476 22.2028 1.48611 21.9056 1.51636C21.6672 1.54127 21.4448 1.37045 21.4056 1.1338C21.427 1.37223 21.2562 1.58931 21.0142 1.6249C20.7188 1.66761 20.4216 1.71743 20.1316 1.77437C19.8949 1.82063 19.6601 1.67472 19.5996 1.44163C19.6423 1.67828 19.4928 1.9096 19.2562 1.96654C18.9697 2.03594 18.6796 2.11423 18.3914 2.19964C18.3487 2.2121 18.3042 2.21743 18.2615 2.21743ZM30.0249 2.37402C29.9804 2.37402 29.9342 2.3669 29.8879 2.35267C29.6014 2.26192 29.3132 2.17829 29.0231 2.09999C28.7794 2.03594 28.6334 1.78505 28.6993 1.53949C28.7651 1.29572 29.0178 1.15159 29.2616 1.21743C29.5658 1.2975 29.8648 1.38469 30.1637 1.47899C30.4057 1.55551 30.5392 1.81174 30.4626 2.05373C30.4021 2.24768 30.2206 2.37402 30.0249 2.37402ZM13.2668 4.48436C13.1155 4.48436 12.9661 4.40962 12.8789 4.27261C12.7436 4.05731 12.8077 3.77439 13.0212 3.64093C13.2881 3.47189 13.5586 3.30997 13.8255 3.15694C14.0426 3.03417 14.3184 3.10712 14.4465 3.31887C14.338 3.09644 14.4287 2.82598 14.6511 2.7121C14.9252 2.57153 15.2099 2.43452 15.4946 2.30462C15.7223 2.20142 15.9874 2.29751 16.0978 2.51637C16.0124 2.28505 16.128 2.02882 16.3576 1.93629C16.6458 1.82063 16.9412 1.71031 17.2366 1.60889C17.4768 1.52526 17.7366 1.65159 17.8202 1.89003C17.9038 2.12847 17.7775 2.39003 17.5373 2.47366C17.2561 2.56975 16.9732 2.67651 16.701 2.78505C16.4768 2.8758 16.2241 2.77794 16.1173 2.56441C16.1992 2.78683 16.096 3.03772 15.8771 3.13737C15.6049 3.26193 15.3326 3.39182 15.0711 3.52705C14.854 3.63737 14.5906 3.56086 14.4679 3.35623C14.5711 3.57154 14.4928 3.8331 14.281 3.95232C14.0212 4.10179 13.765 4.25482 13.5123 4.41496C13.4358 4.463 13.3504 4.48436 13.2668 4.48436ZM11.7579 5.53063C11.6191 5.53063 11.4838 5.46835 11.3931 5.34913C11.2383 5.14806 11.2774 4.86158 11.4803 4.70856C11.7294 4.51994 11.9839 4.33311 12.2383 4.15695C12.4483 4.01282 12.733 4.06442 12.8789 4.27261C13.023 4.4808 12.9714 4.7655 12.7632 4.90963C12.5177 5.08045 12.2739 5.2566 12.0355 5.43632C11.9536 5.50038 11.8557 5.53063 11.7579 5.53063ZM10.3433 6.69968C10.2169 6.69968 10.0924 6.64807 10.0016 6.54843C9.83259 6.35981 9.84682 6.06978 10.0354 5.90074C10.2685 5.69255 10.5052 5.48792 10.7454 5.29041C10.9411 5.12849 11.2312 5.15518 11.3931 5.35091C11.555 5.54664 11.5266 5.8349 11.3308 5.99504C11.1013 6.18544 10.8735 6.38117 10.6493 6.58224C10.5621 6.66053 10.4518 6.69968 10.3433 6.69968ZM9.02653 7.97904C8.91265 7.97904 8.79877 7.93634 8.7098 7.85271C8.52475 7.67833 8.51763 7.38829 8.69379 7.20502C8.90909 6.97904 9.12796 6.75661 9.35216 6.54131C9.53365 6.36337 9.82369 6.36693 10.0016 6.54843C10.1778 6.72992 10.1742 7.01996 9.99273 7.19612C9.77743 7.40609 9.56568 7.61783 9.35927 7.83669C9.26853 7.931 9.14753 7.97904 9.02653 7.97904ZM7.80944 9.35628C7.70802 9.35628 7.60481 9.32247 7.5194 9.2513C7.32367 9.09293 7.2952 8.80467 7.45535 8.60894C7.65286 8.36695 7.85392 8.12851 8.06033 7.89541C8.22937 7.7068 8.51763 7.68723 8.70802 7.85449C8.89842 8.02175 8.91799 8.31179 8.75073 8.5004C8.55144 8.7246 8.35749 8.95414 8.16532 9.18724C8.07635 9.29934 7.94467 9.35628 7.80944 9.35628ZM6.69911 10.8189C6.60836 10.8189 6.51584 10.7905 6.43576 10.7335C6.22758 10.5894 6.17775 10.3029 6.32366 10.0965C6.50338 9.84205 6.68844 9.59116 6.87527 9.34382C7.03007 9.14098 7.31833 9.10005 7.5194 9.25486C7.72225 9.40788 7.7614 9.69436 7.60837 9.89543C7.42688 10.1339 7.24894 10.3776 7.07456 10.6232C6.98559 10.7495 6.84324 10.8189 6.69911 10.8189ZM5.69377 12.3545C5.61191 12.3545 5.53006 12.3332 5.45533 12.2887C5.23825 12.157 5.16885 11.8759 5.30052 11.6588C5.46245 11.3919 5.62971 11.1285 5.79875 10.8687C5.93754 10.657 6.22224 10.5983 6.43398 10.7371C6.64751 10.8741 6.70623 11.1588 6.56744 11.3705C6.40374 11.6214 6.24359 11.8759 6.08701 12.1339C5.99982 12.2762 5.84857 12.3545 5.69377 12.3545ZM4.7934 13.9542C4.72223 13.9542 4.64927 13.9382 4.58166 13.9026C4.35746 13.7869 4.26849 13.5111 4.38593 13.2869C4.53005 13.0093 4.67774 12.7353 4.82899 12.4648C4.95355 12.2442 5.23469 12.1677 5.45533 12.2905C5.67597 12.4132 5.75426 12.6926 5.63149 12.9132C5.4838 13.1748 5.33967 13.4399 5.20088 13.7086C5.11903 13.8652 4.95888 13.9542 4.7934 13.9542ZM44.5784 15.5271C44.4023 15.5271 44.235 15.4257 44.1585 15.2531C44.0784 15.0716 44.0001 14.9061 43.9236 14.7602C43.8738 14.6588 43.8204 14.5609 43.7688 14.4613C43.6531 14.2442 43.7314 13.9755 43.9414 13.8528C43.7243 13.9649 43.4556 13.8866 43.3329 13.673C43.1834 13.4115 43.0304 13.1535 42.8738 12.8972C42.7457 12.6908 42.8026 12.4221 43.0001 12.2851C42.7919 12.4026 42.5232 12.3421 42.388 12.1392C42.2225 11.8883 42.0535 11.641 41.8791 11.3954C41.7385 11.1979 41.7777 10.9275 41.9645 10.7762C41.7634 10.9079 41.493 10.8634 41.3471 10.6712C41.1638 10.431 40.9787 10.1961 40.7883 9.96305C40.6353 9.77443 40.6567 9.50041 40.8346 9.33849C40.6424 9.48439 40.3684 9.45948 40.2083 9.27621C40.0108 9.05023 39.8097 8.82781 39.6051 8.60894C39.4378 8.43101 39.4414 8.15698 39.6051 7.9826C39.4253 8.14097 39.1513 8.13563 38.9787 7.96303C38.7652 7.75129 38.5481 7.5431 38.3293 7.34025C38.1495 7.17477 38.1335 6.89896 38.2865 6.71391C38.1175 6.88651 37.8435 6.90074 37.6584 6.7406C37.4307 6.54665 37.1994 6.35448 36.9663 6.16764C36.7759 6.0164 36.7385 5.74415 36.8755 5.54664C36.7225 5.7317 36.4485 5.7655 36.2527 5.6196C36.0107 5.44166 35.7652 5.26906 35.5178 5.1018C35.3168 4.96301 35.2598 4.6961 35.3826 4.48969C35.242 4.68364 34.9734 4.73881 34.7669 4.61069C34.5107 4.45233 34.2545 4.2993 33.9929 4.15161C33.7812 4.03061 33.7029 3.76549 33.8096 3.55018C33.6851 3.75659 33.42 3.83488 33.2047 3.72278C32.9378 3.58577 32.6691 3.4541 32.3968 3.32776C32.1726 3.22278 32.073 2.96121 32.1673 2.73523C32.0641 2.95765 31.8025 3.06086 31.5748 2.96655C31.2989 2.85267 31.0196 2.74413 30.7367 2.64092C30.5 2.55551 30.3755 2.29217 30.4626 2.05373C30.5498 1.81707 30.8132 1.6943 31.0516 1.78149C31.347 1.88647 31.637 2.00035 31.9271 2.12135C32.1602 2.21743 32.2723 2.48434 32.1744 2.71922C32.1744 2.71922 32.1744 2.71922 32.1744 2.721V2.71922C32.2812 2.48968 32.5552 2.39181 32.7847 2.4968C33.0676 2.62847 33.3488 2.76726 33.6264 2.90961C33.8488 3.02349 33.9378 3.29573 33.8257 3.51816C33.9538 3.30463 34.2314 3.23168 34.4484 3.35623C34.7189 3.50926 34.9876 3.6694 35.2527 3.8331C35.4645 3.96478 35.5303 4.24236 35.404 4.45589C35.5481 4.25482 35.8292 4.20321 36.0356 4.34378C36.2919 4.51994 36.5481 4.69788 36.799 4.88471C36.9983 5.0324 37.0445 5.31176 36.9004 5.51461C37.0606 5.326 37.3435 5.29753 37.5392 5.45233C37.783 5.64629 38.0214 5.84558 38.2581 6.04842C38.4467 6.21035 38.4698 6.49327 38.3132 6.68544C38.4876 6.5075 38.7705 6.50039 38.9538 6.66943C39.1816 6.87939 39.4058 7.0947 39.6264 7.31356C39.8026 7.48972 39.8061 7.77264 39.6371 7.95235C39.8221 7.78865 40.1068 7.80289 40.2759 7.98438C40.4876 8.20858 40.6958 8.4399 40.9004 8.67478C41.0642 8.86161 41.0481 9.14453 40.8666 9.3118C41.0624 9.16055 41.3435 9.19258 41.5019 9.38653C41.6976 9.62674 41.8898 9.87052 42.0784 10.1179C42.2279 10.3136 42.1941 10.5947 42.0019 10.7495C42.2083 10.6143 42.4859 10.6659 42.63 10.867C42.8079 11.1196 42.9841 11.3759 43.1549 11.6339C43.2919 11.8421 43.2385 12.1196 43.0357 12.262C43.251 12.1374 43.525 12.2068 43.6567 12.4186C43.8186 12.6819 43.977 12.9488 44.13 13.2175C44.2563 13.4364 44.1816 13.714 43.9645 13.8403C44.1887 13.7264 44.4628 13.8118 44.5802 14.0343C44.6336 14.1357 44.6887 14.2389 44.7403 14.3421C44.824 14.504 44.9112 14.6855 44.9983 14.8848C45.1016 15.1161 44.9966 15.3866 44.7635 15.4898C44.703 15.5147 44.6407 15.5271 44.5784 15.5271ZM3.99802 15.609C3.93574 15.609 3.87347 15.5965 3.81297 15.5699C3.58165 15.4684 3.47489 15.198 3.57809 14.9666C3.70443 14.6819 3.83432 14.399 3.96955 14.1197C4.07809 13.8919 4.3539 13.7958 4.58166 13.9061C4.80942 14.0147 4.9055 14.2887 4.79696 14.5165C4.66707 14.7869 4.54073 15.0592 4.41795 15.3368C4.34322 15.5076 4.17418 15.609 3.99802 15.609ZM45.2279 17.2425C45.0339 17.2425 44.856 17.1215 44.7919 16.9293C44.6923 16.6286 44.5909 16.3439 44.493 16.0805C44.404 15.8439 44.525 15.5805 44.7617 15.4916C45.0001 15.4026 45.2635 15.5236 45.3524 15.7602C45.4556 16.0343 45.5588 16.3279 45.6638 16.6393C45.7439 16.8795 45.6122 17.1393 45.372 17.2193C45.324 17.2353 45.2741 17.2425 45.2279 17.2425ZM45.7528 18.9987C45.55 18.9987 45.3649 18.8635 45.3097 18.6588C45.2297 18.3599 45.146 18.0699 45.0624 17.7905C44.9894 17.5467 45.1282 17.2923 45.372 17.2193C45.614 17.1464 45.8702 17.2852 45.9432 17.5272C46.0286 17.8154 46.114 18.1126 46.1976 18.4204C46.2635 18.666 46.1176 18.9169 45.8738 18.9827C45.8329 18.9934 45.7937 18.9987 45.7528 18.9987ZM46.1905 20.7781C45.9788 20.7781 45.7884 20.6322 45.7421 20.4186C45.6763 20.1197 45.6069 19.8243 45.5357 19.5361C45.477 19.2905 45.6265 19.0432 45.8738 18.9827C46.1229 18.9222 46.3685 19.0734 46.429 19.319C46.5019 19.6144 46.5713 19.9151 46.6389 20.2211C46.6941 20.4685 46.5375 20.7122 46.2884 20.7674C46.2564 20.7745 46.2226 20.7781 46.1905 20.7781ZM46.8062 24.3884C46.5784 24.3884 46.3791 24.2176 46.3507 23.9845C46.3151 23.6856 46.2759 23.3866 46.2332 23.0877C46.1976 22.8422 46.3649 22.6126 46.6105 22.5717C46.3667 22.6091 46.1336 22.4418 46.0909 22.1962C46.0393 21.8955 45.9841 21.5984 45.9272 21.3048C45.8774 21.0574 46.0411 20.8172 46.2884 20.7674C46.5393 20.7194 46.7795 20.8813 46.8275 21.1286C46.8863 21.4293 46.9432 21.7336 46.9966 22.0414C47.0393 22.2905 46.8702 22.5272 46.6211 22.5699H46.6194H46.6211C46.872 22.5343 47.1051 22.7069 47.1425 22.956C47.187 23.2621 47.2261 23.5699 47.2635 23.8777C47.2937 24.1286 47.114 24.3564 46.8614 24.3866C46.8436 24.3884 46.8258 24.3884 46.8062 24.3884ZM46.9717 26.2141C46.7315 26.2141 46.5286 26.0272 46.5144 25.7835C46.4966 25.4845 46.4734 25.1838 46.4468 24.8849C46.4236 24.6322 46.6105 24.4098 46.8631 24.3866C47.1122 24.3635 47.3382 24.5486 47.3614 24.8012C47.3898 25.1109 47.413 25.4205 47.4308 25.7301C47.4468 25.9827 47.2528 26.198 47.0001 26.2141C46.9912 26.2141 46.9806 26.2141 46.9717 26.2141ZM47.0162 28.045H47.009C46.7546 28.0415 46.5535 27.8333 46.5571 27.5806C46.5589 27.4703 46.5589 27.3582 46.5589 27.2479C46.5589 27.0593 46.5571 26.8724 46.5517 26.6838C46.5464 26.4294 46.7475 26.2194 47.0001 26.2141C47.2475 26.2016 47.4646 26.408 47.4699 26.6607C47.4752 26.8582 47.477 27.0539 47.477 27.2479C47.477 27.3635 47.477 27.4792 47.4752 27.5949C47.4717 27.8457 47.2653 28.045 47.0162 28.045ZM41.5997 43.2605C41.4912 43.2605 41.3844 43.2231 41.2972 43.1466C41.1069 42.9793 41.0873 42.6911 41.2545 42.5007C41.4503 42.2765 41.6442 42.0451 41.8293 41.8121C41.9823 41.6217 42.2528 41.5843 42.4503 41.7213C42.2652 41.5701 42.2279 41.2978 42.3702 41.1003C42.5446 40.8601 42.7154 40.6128 42.8791 40.3636C43.0143 40.159 43.2866 40.0985 43.4948 40.2195C43.2919 40.0843 43.2296 39.8156 43.3542 39.6056C43.5055 39.3494 43.6531 39.0878 43.7937 38.8245C43.9076 38.611 44.1692 38.5238 44.388 38.6234C44.1781 38.506 44.0926 38.2444 44.1994 38.0255C44.3275 37.7586 44.4521 37.4864 44.5713 37.2088C44.6674 36.9864 44.9218 36.8778 45.1496 36.9615C44.929 36.8636 44.8204 36.6074 44.9076 36.3796C45.0144 36.102 45.1158 35.8209 45.2119 35.5344C45.2902 35.3013 45.5375 35.175 45.7742 35.2408C45.5428 35.1608 45.4129 34.9134 45.4823 34.6785C45.566 34.3938 45.646 34.1038 45.7208 33.812C45.7813 33.5736 46.0179 33.4276 46.2599 33.4775C46.0233 33.4152 45.8756 33.1768 45.929 32.9365C45.9912 32.6465 46.05 32.3511 46.1051 32.0557C46.1496 31.812 46.3774 31.6518 46.6194 31.6839C46.3791 31.6376 46.2154 31.4098 46.251 31.1661C46.2955 30.8725 46.3347 30.5735 46.3702 30.2728C46.3987 30.0308 46.614 29.8564 46.856 29.8689C46.614 29.8369 46.4396 29.6216 46.4592 29.376C46.4841 29.0789 46.5055 28.7799 46.5233 28.4774C46.5375 28.2248 46.7635 28.0397 47.0073 28.045C47.2617 28.0593 47.4539 28.2764 47.4396 28.529C47.4236 28.8386 47.4005 29.1482 47.3756 29.4543C47.3542 29.7034 47.13 29.8902 46.8863 29.8725C47.1354 29.9063 47.3115 30.1305 47.2813 30.3778C47.2457 30.6892 47.2048 30.997 47.1603 31.3013C47.1229 31.5486 46.8952 31.723 46.6425 31.6856C46.8898 31.7337 47.0535 31.9703 47.009 32.2177C46.9521 32.5273 46.8916 32.8316 46.8258 33.1323C46.7724 33.3778 46.5286 33.5344 46.2831 33.4828C46.5268 33.5469 46.6727 33.7942 46.6105 34.038C46.5339 34.3422 46.4503 34.6412 46.3631 34.9366C46.292 35.1785 46.0393 35.3173 45.7955 35.2479C46.0339 35.3298 46.1621 35.5878 46.082 35.8262C45.9823 36.1234 45.8756 36.417 45.7653 36.7052C45.6763 36.9401 45.4147 37.0576 45.1781 36.9722C45.4076 37.0736 45.5144 37.3405 45.4147 37.5718C45.2902 37.8583 45.162 38.143 45.0268 38.4223C44.9183 38.6465 44.6496 38.7426 44.4236 38.6412C44.6407 38.7622 44.7225 39.0362 44.6051 39.2569C44.4574 39.5291 44.3026 39.8031 44.1442 40.0718C44.0161 40.2889 43.735 40.3601 43.5179 40.2337C43.7279 40.3725 43.7866 40.6555 43.6478 40.8654C43.477 41.127 43.2973 41.385 43.1158 41.6377C42.9681 41.8387 42.6869 41.8868 42.4823 41.7444C42.6745 41.9028 42.7047 42.1875 42.5481 42.3832C42.3524 42.627 42.1496 42.869 41.9449 43.1039C41.8542 43.2071 41.7279 43.2605 41.5997 43.2605ZM8.8913 45.5968C8.78988 45.5968 8.68845 45.563 8.60304 45.4936C8.35749 45.2961 8.11727 45.0932 7.88595 44.8886C7.69912 44.7213 7.68133 44.4348 7.84503 44.2462C7.66709 44.4224 7.37883 44.4224 7.19912 44.248C6.97669 44.0309 6.75783 43.8049 6.54431 43.5772C6.37704 43.3975 6.38238 43.1181 6.5532 42.9455C6.35925 43.0932 6.08167 43.0629 5.9233 42.8761C5.72224 42.6377 5.52473 42.3921 5.33611 42.1466C5.18486 41.9473 5.22045 41.6644 5.41796 41.5096C5.21156 41.6483 4.92863 41.595 4.78451 41.3886C4.60657 41.1341 4.43397 40.8708 4.26849 40.6056C4.13681 40.3939 4.19909 40.1145 4.40728 39.9793C4.18842 40.0967 3.91261 40.0184 3.78984 39.8014C3.64037 39.5327 3.4909 39.2551 3.35033 38.9739C3.23645 38.7497 3.32542 38.4775 3.54784 38.3618C3.31652 38.4615 3.04962 38.3583 2.94641 38.1287C2.82186 37.8476 2.69908 37.5576 2.58342 37.2658C2.49089 37.0344 2.60121 36.7729 2.83075 36.6768C2.5941 36.7533 2.33965 36.6252 2.2578 36.3903C2.15637 36.0985 2.05851 35.8013 1.96954 35.5006C1.89658 35.2604 2.03181 35.0077 2.27025 34.933C2.02648 34.9899 1.78092 34.844 1.71864 34.602C1.64213 34.3013 1.57096 33.9988 1.50334 33.6928C1.45174 33.4472 1.60654 33.2052 1.8521 33.1501C1.60476 33.191 1.36811 33.0237 1.3254 32.7764C1.2738 32.4721 1.22576 32.1661 1.18305 31.8547C1.14747 31.6073 1.32184 31.376 1.57274 31.3404C1.32362 31.3618 1.09942 31.1803 1.07451 30.9294C1.04248 30.6234 1.01757 30.3137 0.997999 30.0006C0.980205 29.7497 1.17238 29.5326 1.42505 29.5148C1.16526 29.5362 0.960632 29.3262 0.951735 29.0717C0.942838 28.7746 0.9375 28.4756 0.9375 28.1732V28.1429C0.9375 28.0308 0.976646 27.9294 1.04426 27.8511C0.980205 27.771 0.942838 27.6678 0.944617 27.5575C0.951735 27.239 0.958853 26.9329 0.967749 26.6393C0.973088 26.3902 1.17772 26.1945 1.42505 26.1945H1.42861C1.17949 26.1785 0.987322 25.9685 0.997999 25.7194C1.01045 25.3991 1.02469 25.0913 1.0407 24.7995C1.05494 24.5557 1.25601 24.3653 1.49978 24.3653C1.25779 24.335 1.08163 24.1215 1.09942 23.8777C1.12255 23.5521 1.15102 23.2461 1.18127 22.9543C1.20619 22.7069 1.42683 22.5254 1.6706 22.5432C1.42683 22.5023 1.25779 22.2745 1.29337 22.029C1.33964 21.7034 1.38946 21.4026 1.44818 21.1037C1.49622 20.8599 1.72932 20.6962 1.9731 20.7389C1.73466 20.6713 1.59231 20.4275 1.65281 20.1855C1.72754 19.8866 1.81117 19.5912 1.90726 19.2834C1.98021 19.0467 2.22399 18.9115 2.4642 18.9756C2.23822 18.883 2.12256 18.6286 2.20441 18.3973C2.30406 18.1179 2.4126 17.8297 2.53004 17.5307C2.61901 17.2994 2.87346 17.1837 3.10656 17.262C2.88236 17.1606 2.77737 16.9026 2.8699 16.6731L3.2151 15.8243C3.31118 15.5894 3.57631 15.4773 3.81297 15.5716C4.04784 15.6677 4.16173 15.9364 4.06564 16.1695L3.72222 17.0165C3.62969 17.2425 3.37524 17.3563 3.14748 17.278C3.36812 17.3777 3.47489 17.6339 3.38592 17.8617C3.27204 18.1535 3.16706 18.4329 3.06919 18.7051C2.98912 18.9311 2.74712 19.0539 2.52114 18.9951C2.73823 19.0823 2.85566 19.3261 2.78449 19.5539C2.69374 19.8457 2.61545 20.1268 2.54249 20.4097C2.48378 20.6428 2.25779 20.7905 2.0247 20.7496C2.25246 20.8137 2.39481 21.0432 2.35032 21.2781C2.29516 21.561 2.24712 21.8475 2.20263 22.1571C2.16883 22.3973 1.94818 22.5681 1.71509 22.5486C1.95174 22.5895 2.119 22.8066 2.09409 23.0486C2.06384 23.3315 2.03893 23.6304 2.01402 23.9454C1.99623 24.1856 1.79516 24.3689 1.5585 24.3689H1.55672C1.79516 24.3973 1.97132 24.6073 1.95708 24.8493C1.94107 25.1375 1.92861 25.4383 1.91616 25.755C1.90548 26.0023 1.70263 26.1963 1.45708 26.1963H1.4553C1.70085 26.2105 1.89302 26.4187 1.88413 26.666C1.87701 26.9561 1.86989 27.2603 1.86277 27.5771C1.86099 27.6838 1.82185 27.7817 1.75779 27.8582C1.82007 27.9365 1.85744 28.0344 1.85744 28.1429V28.1732C1.85744 28.4667 1.86099 28.7568 1.86989 29.0433C1.87701 29.2906 1.68662 29.4988 1.44106 29.5148C1.4464 29.5148 1.44996 29.5148 1.4553 29.5148C1.69551 29.5148 1.89836 29.7016 1.91438 29.9436C1.93395 30.2443 1.95708 30.5433 1.98733 30.8387C2.01224 31.0842 1.83786 31.3031 1.59587 31.3369C1.84142 31.3173 2.05851 31.4881 2.09231 31.7319C2.13324 32.0308 2.1795 32.3262 2.2311 32.6198C2.27203 32.8618 2.11722 33.0896 1.88057 33.1447C2.119 33.1074 2.35032 33.2604 2.40192 33.5006C2.46598 33.7942 2.53538 34.086 2.60833 34.3743C2.66883 34.6109 2.5336 34.8511 2.30228 34.9241C2.53716 34.8689 2.77737 35.0042 2.84855 35.2373C2.93574 35.5255 3.02648 35.8102 3.12435 36.0896C3.20442 36.3209 3.09054 36.57 2.8699 36.6625C3.09766 36.5896 3.34677 36.7035 3.43752 36.9294C3.54784 37.2088 3.6635 37.4846 3.7845 37.7551C3.88592 37.9775 3.79339 38.2355 3.57809 38.3476C3.80051 38.2533 4.0603 38.3458 4.17062 38.5629C4.30585 38.8316 4.44642 39.0967 4.59055 39.353C4.70977 39.5629 4.64216 39.8298 4.44109 39.9597C4.65105 39.8476 4.91796 39.9152 5.04785 40.1216C5.20444 40.3725 5.3717 40.6234 5.54074 40.869C5.67775 41.0683 5.63505 41.3387 5.44643 41.4882C5.6475 41.3548 5.91797 41.3975 6.06743 41.5914C6.24715 41.8245 6.43398 42.0594 6.62616 42.2854C6.77918 42.4686 6.76673 42.7338 6.60303 42.901C6.78986 42.7605 7.05499 42.78 7.21869 42.9544C7.41976 43.1715 7.62972 43.3868 7.84325 43.5932C8.01585 43.764 8.02652 44.0398 7.86816 44.2213C8.03898 44.0505 8.31478 44.0416 8.49806 44.2035C8.71692 44.3993 8.94646 44.5932 9.18134 44.7836C9.37885 44.942 9.4091 45.2302 9.24895 45.4277C9.15821 45.5398 9.02475 45.5968 8.8913 45.5968ZM25.258 50.4171C25.0124 50.4171 24.8096 50.2267 24.7989 49.9812C24.7882 49.7285 24.984 49.5132 25.2384 49.5025C25.5409 49.49 25.8416 49.4723 26.1405 49.4491C26.3825 49.4349 26.6032 49.6128 26.6299 49.8548C26.6139 49.611 26.7954 49.3957 27.0409 49.3708C27.3434 49.3388 27.6406 49.3014 27.9377 49.2605C28.1815 49.2303 28.4092 49.3922 28.452 49.6324C28.4199 49.3922 28.5854 49.1662 28.8292 49.1235C29.1281 49.0719 29.4235 49.0167 29.7153 48.9562C29.9591 48.9064 30.1975 49.0577 30.2562 49.2961C30.2046 49.0559 30.3541 48.8174 30.5961 48.7587C30.8897 48.6858 31.1797 48.6093 31.4662 48.5274C31.6993 48.4616 31.9466 48.5897 32.0249 48.8174C31.9644 48.5843 32.0943 48.3406 32.3274 48.2641C32.6139 48.1715 32.8968 48.0737 33.178 47.9687C33.4075 47.8851 33.662 47.9936 33.758 48.216C33.6762 47.9883 33.7865 47.7356 34.0143 47.6395C34.2919 47.5238 34.5659 47.4028 34.8346 47.2783C35.057 47.1733 35.3186 47.2623 35.4324 47.4722C35.3346 47.2534 35.4235 46.9918 35.6406 46.8797C35.904 46.7427 36.1691 46.5968 36.4253 46.4491C36.6371 46.3263 36.9022 46.3904 37.0374 46.5879C36.9218 46.3779 36.9876 46.1128 37.1922 45.9829C37.4431 45.8228 37.6922 45.6537 37.936 45.4829C38.13 45.3459 38.3915 45.3797 38.5446 45.5523C38.4218 45.3566 38.4663 45.095 38.6531 44.9509C38.8862 44.7694 39.1193 44.579 39.3453 44.385C39.5286 44.2267 39.8026 44.2409 39.9698 44.4099C39.8186 44.2267 39.8346 43.9526 40.0108 43.7872C40.2261 43.5843 40.4396 43.3743 40.6478 43.159C40.8239 42.9758 41.114 42.9704 41.2972 43.1466C41.4787 43.321 41.4841 43.6128 41.3079 43.7943C41.0908 44.0185 40.8666 44.2409 40.6407 44.4526C40.4592 44.6252 40.1745 44.6181 39.9983 44.442C40.1567 44.6341 40.1335 44.9171 39.9431 45.079C39.7065 45.2836 39.4627 45.4811 39.2172 45.6715C39.025 45.8228 38.751 45.7943 38.5908 45.6146C38.7189 45.8174 38.6656 46.0897 38.4663 46.2285C38.2118 46.4082 37.9502 46.5843 37.6869 46.7534C37.4787 46.8868 37.1976 46.8299 37.0588 46.6235C37.178 46.8406 37.1033 47.1146 36.8862 47.2391C36.6175 47.3957 36.3417 47.5487 36.0641 47.6911C35.8417 47.8068 35.5694 47.7231 35.4484 47.5043C35.5517 47.732 35.452 48.0007 35.2242 48.1057C34.9431 48.2374 34.6584 48.3655 34.3684 48.4847C34.1353 48.5826 33.8684 48.474 33.7687 48.2445C33.8541 48.4811 33.7331 48.7409 33.4965 48.8281C33.2064 48.9367 32.9111 49.0381 32.6121 49.136C32.3737 49.2142 32.1192 49.0861 32.0374 48.8513C32.0997 49.0915 31.9591 49.3406 31.7189 49.4082C31.4199 49.4936 31.1192 49.5719 30.815 49.6484C30.5676 49.7071 30.3203 49.5577 30.2598 49.3121C30.3114 49.5594 30.1513 49.8014 29.9021 49.853C29.5996 49.9153 29.2936 49.974 28.9858 50.0256C28.7367 50.0683 28.5 49.9029 28.4555 49.6573C28.4875 49.9046 28.3132 50.1342 28.064 50.1698C27.7562 50.2107 27.4484 50.2481 27.137 50.2801C26.8843 50.3032 26.6601 50.1271 26.6317 49.8762C26.6494 50.1271 26.4591 50.3441 26.2082 50.3637C25.9003 50.3851 25.5907 50.4046 25.2776 50.4171H25.258ZM23.8505 50.4491C23.7046 50.4491 23.5587 50.4473 23.4145 50.4456C23.1619 50.442 22.959 50.2356 22.9626 49.9829C22.9501 50.2356 22.733 50.426 22.4822 50.4171C22.1708 50.4029 21.8594 50.3851 21.5515 50.3602C21.2989 50.3424 21.1103 50.1235 21.1298 49.8708C21.1014 50.1217 20.8754 50.3014 20.6227 50.2747C20.3113 50.2409 20.0017 50.2 19.6957 50.1555C19.4465 50.1199 19.2739 49.8886 19.3078 49.6413C19.2597 49.8868 19.0213 50.0505 18.7739 50.0061C18.4661 49.9509 18.1601 49.8886 17.8576 49.8228C17.6102 49.7694 17.4536 49.5256 17.507 49.2783C17.507 49.2783 17.507 49.2783 17.507 49.2765C17.507 49.2783 17.507 49.2783 17.507 49.2783C17.4447 49.5239 17.1921 49.6715 16.9483 49.6075C16.644 49.5292 16.3433 49.4456 16.0462 49.3566C15.8059 49.2854 15.6672 49.0345 15.7365 48.7943C15.6511 49.0292 15.3949 49.1537 15.1547 49.0719C14.8593 48.9705 14.5657 48.8637 14.2757 48.7516C14.0426 48.6609 13.9251 48.4011 14.0106 48.168C13.9056 48.394 13.6404 48.4954 13.4091 48.3957C13.1209 48.2694 12.8379 48.1377 12.5586 48.0025C12.3326 47.8922 12.2383 47.6217 12.3451 47.3957C12.2223 47.6146 11.9447 47.6929 11.7258 47.5737C11.4518 47.4242 11.1778 47.2676 10.9109 47.1092C10.6974 46.9794 10.6262 46.7053 10.749 46.4882C10.6066 46.6911 10.3273 46.7445 10.1191 46.6057C9.86106 46.4349 9.60127 46.2551 9.34682 46.0683C9.14397 45.9188 9.09949 45.6324 9.24895 45.4277C9.4002 45.2249 9.68668 45.1804 9.89131 45.3299C10.1333 45.5078 10.3824 45.6804 10.628 45.8441C10.8308 45.9793 10.8913 46.2445 10.7721 46.4527C10.9109 46.2569 11.1778 46.2 11.3842 46.3228C11.6404 46.4776 11.9002 46.6253 12.1636 46.7694C12.3789 46.885 12.4625 47.1484 12.3593 47.3655C12.4785 47.1555 12.7419 47.0737 12.9625 47.1786C13.2294 47.3103 13.5017 47.4349 13.7775 47.5559C13.9999 47.652 14.1066 47.9064 14.0248 48.1306C14.1262 47.9135 14.3807 47.8103 14.6084 47.8975C14.886 48.006 15.1672 48.1075 15.4536 48.2053C15.6849 48.2836 15.8113 48.531 15.7454 48.7623C15.8273 48.5363 16.0746 48.41 16.3095 48.4794C16.596 48.5648 16.886 48.6466 17.1778 48.7214C17.4181 48.7836 17.564 49.0239 17.5106 49.2623C17.5711 49.0256 17.8095 48.8762 18.0533 48.9295C18.3469 48.9936 18.6405 49.0505 18.9376 49.1057C19.1814 49.1484 19.3451 49.3762 19.3113 49.6182C19.3576 49.3779 19.5853 49.216 19.8291 49.2498C20.1245 49.2925 20.4234 49.3317 20.7241 49.3637C20.9697 49.3922 21.1494 49.6075 21.1316 49.853C21.1601 49.6093 21.3789 49.4278 21.6227 49.4491C21.9217 49.4705 22.2224 49.4883 22.5249 49.5043C22.7722 49.515 22.9661 49.7196 22.9626 49.9634C22.975 49.7214 23.1761 49.5292 23.4217 49.5292H23.4288C23.7277 49.5345 24.032 49.5345 24.3327 49.5292H24.3398C24.5907 49.5292 24.7953 49.7303 24.7989 49.9812C24.8025 50.2338 24.5996 50.4402 24.3469 50.4456C24.1815 50.4473 24.016 50.4491 23.8505 50.4491Z" fill="#BABABA"/>
<path d="M9.18127 40.9366C8.18838 42.1448 7.64034 43.7569 7.89834 45.296C8.15813 46.8352 9.30049 48.2445 10.8165 48.6341C11.8023 48.8886 12.8521 48.7178 13.8219 48.4064C14.6208 48.1502 15.4073 47.7907 16.0052 47.2035C17.0728 46.1573 17.3806 44.4651 16.8877 43.0558C16.3949 41.6483 15.1778 40.5504 13.7667 40.054C12.2169 39.506 10.2169 39.675 9.18127 40.9366Z" fill="#424242"/>
<path d="M33.2864 40.5896C32.2936 41.796 31.7455 43.4081 32.0053 44.9473C32.2651 46.4864 33.4057 47.8957 34.9217 48.2854C35.9075 48.5416 36.9573 48.369 37.9271 48.0594C38.726 47.8032 39.5125 47.4419 40.1121 46.8548C41.178 45.8085 41.4858 44.1163 40.9929 42.7088C40.5 41.3013 39.2829 40.2017 37.8719 39.7052C36.3238 39.1572 34.322 39.328 33.2864 40.5896Z" fill="#424242"/>
<path d="M5.61548 14.4292C3.27204 12.2993 13.9056 0.954041 24.1316 0.954041C34.3577 0.954041 46.7795 14.1001 42.6478 14.0627C35.3808 13.9968 11.5212 14.4862 5.61548 14.4292Z" fill="white"/>
<path d="M4.11899 14.2548C4.78982 10.7477 10.434 5.24054 12.9038 3.73342C14.7703 2.59462 17.7152 0.329474 25.1103 0.45403C34.5036 0.614174 41.7207 7.31885 44.3115 13.8278C44.6051 14.5645 31.1975 13.9701 31.9626 13.7602C37.4911 12.2442 36.4093 2.68359 29.2633 2.50209C26.1138 2.4238 26.2402 6.70853 26.3718 8.68541C26.4092 9.25659 25.395 9.25837 24.08 9.28328C22.8878 9.30285 22.3238 9.37937 22.4145 8.68897C22.8006 5.72987 21.7935 2.11774 18.8682 2.50565C12.8522 3.29925 12.5052 12.3402 16.8967 14.0983C17.8718 14.4879 4.02646 14.7406 4.11899 14.2548Z" fill="#383838"/>
<path d="M27.0587 6.06798C27.0605 5.85267 27.3844 5.60356 27.5925 5.6427C27.8007 5.68363 27.9733 5.84377 28.0676 6.03239C28.1602 6.22278 28.1851 6.43986 28.1744 6.65161C28.1655 6.89894 28.0961 7.16941 27.8897 7.30998C27.7313 7.41674 27.2918 7.2904 27.1299 7.1872C26.9698 7.084 27.0569 6.16584 27.0587 6.06798Z" fill="black"/>
<path d="M21.6014 5.89357C21.5996 5.68005 21.2758 5.42916 21.0676 5.4683C20.8594 5.50923 20.6868 5.66937 20.5925 5.85977C20.4982 6.04838 20.475 6.26546 20.4839 6.47721C20.4946 6.72454 20.564 6.99678 20.7686 7.13558C20.9288 7.24234 21.3683 7.116 21.5302 7.0128C21.6904 6.9096 21.6032 5.99144 21.6014 5.89357Z" fill="black"/>
<path d="M20.9964 8.67299C20.9786 8.5253 22.6245 8.01284 23.427 7.73348C23.6192 7.66764 23.8149 7.60003 24.0195 7.59647C24.2562 7.58935 24.4857 7.66587 24.7099 7.74238C25.4928 8.00395 27.3114 8.54488 27.3256 8.77619C27.3363 8.96303 25.4234 9.84738 23.9768 10.1214C22.4893 9.6036 21.0337 8.96659 20.9964 8.67299Z" fill="black"/>
</svg>
