<svg width="48" height="51" viewBox="0 0 48 51" fill="none" xmlns="http://www.w3.org/2000/svg">
<path d="M0.961849 27.5647C1.40522 20.6748 1.63232 19.7002 3.27605 15.6693C6.83657 6.9356 14.259 0.432312 23.7862 0.432312C32.8051 0.432312 40.4898 6.25837 44.614 14.2891C45.7887 16.5749 47.0215 20.8532 47.3216 28.2744C47.8893 42.2664 37.324 50.4323 23.7862 50.4323C10.2484 50.4323 0.0615815 41.5391 0.961849 27.5647Z" fill="#424242"/>
<path d="M5.61865 32.8487C5.61865 23.6757 14.0482 16.2411 24.4459 16.2411C34.8449 16.2411 43.2744 23.6757 43.2744 32.8487C43.2744 42.0217 34.8449 49.4564 24.4459 49.4564C14.0482 49.4564 5.61865 42.0217 5.61865 32.8487Z" fill="white"/>
<path d="M8.97371 39.4764C7.9653 40.7078 7.40703 42.3515 7.67062 43.9209C7.93421 45.4903 9.09537 46.9272 10.6364 47.326C11.6394 47.5855 12.7073 47.4098 13.6927 47.0935C14.5064 46.8326 15.3053 46.4649 15.915 45.8661C16.9991 44.7996 17.3127 43.0734 16.8112 41.6365C16.3097 40.2009 15.0715 39.0803 13.6373 38.5734C12.0611 38.0165 10.0281 38.1895 8.97371 39.4764Z" fill="#FFAE00"/>
<path d="M33.485 39.1209C32.4766 40.3523 31.9197 41.996 32.1833 43.5654C32.4469 45.1348 33.608 46.5717 35.149 46.9705C36.1507 47.23 37.2186 47.0556 38.2054 46.738C39.0178 46.4771 39.818 46.1094 40.4263 45.5106C41.5104 44.4441 41.824 42.7179 41.3225 41.2823C40.8223 39.8467 39.5828 38.7261 38.1499 38.2179C36.5738 37.661 34.5394 37.834 33.485 39.1209Z" fill="#FFAE00"/>
<path d="M12.0138 17.5347C13.1533 20.0963 14.4145 22.6051 15.7892 25.0477C16.311 25.9764 16.8544 27.1281 16.311 28.0432C16.1204 28.3649 15.8163 28.6042 15.4945 28.7962C14.1901 29.5802 12.5572 29.6816 11.0757 29.3342C9.59414 28.9854 8.24239 28.2257 6.98255 27.3741C6.74059 27.2092 6.49592 27.0362 6.33912 26.7902C6.03903 26.3143 6.14176 25.6979 6.2891 25.1559C7.15287 21.9833 9.27918 19.173 12.0138 17.5347Z" fill="#424242"/>
<path d="M38.0742 17.7632C36.9333 20.3247 35.6735 22.8336 34.2988 25.2762C33.7756 26.2049 33.2322 27.3565 33.7756 28.2717C33.9662 28.5934 34.2717 28.8327 34.5921 29.0246C35.8965 29.8086 37.5308 29.91 39.011 29.5613C40.4925 29.2139 41.8443 28.4542 43.1041 27.6026C43.3461 27.4377 43.5921 27.2646 43.7475 27.0173C44.0476 26.5428 43.9462 25.9264 43.7989 25.3843C42.9351 22.2118 40.8088 19.4015 38.0742 17.7632Z" fill="#424242"/>
<path d="M29.2406 1.10413C28.9161 2.38288 28.2659 3.59406 27.4603 4.63761C27.2264 4.9404 26.9088 5.29591 26.756 5.64737C26.6033 5.99882 26.5695 6.42598 26.775 6.74905C26.9696 7.05454 27.3467 7.20729 27.709 7.22216C28.4917 7.2546 29.1865 6.74905 29.7758 6.23268C31.0005 5.15803 32.1211 3.86035 32.4239 2.25852C31.2168 1.80704 30.3571 1.35014 29.2406 1.10413Z" fill="white"/>
<path d="M18.4806 1.04196C18.8036 2.32072 19.4552 3.53054 20.2608 4.57544C20.4947 4.87824 20.8123 5.23375 20.9651 5.5852C21.1178 5.93531 21.1516 6.36517 20.9462 6.68688C20.7515 6.99238 20.3757 7.14513 20.0121 7.16C19.2308 7.19244 18.5346 6.68688 17.9466 6.17051C16.7206 5.09587 15.6 3.79819 15.2972 2.19636C16.5043 1.74487 17.3654 1.28798 18.4806 1.04196Z" fill="white"/>
<path d="M27.5305 5.32972C27.9131 5.2351 28.5187 5.71362 28.4957 6.23404C28.4511 7.30328 27.3413 7.01671 27.1223 6.7788C26.9182 6.55576 26.6424 5.55006 27.5305 5.32972Z" fill="black"/>
<path d="M20.1919 5.26753C19.808 5.1729 19.2024 5.65142 19.2254 6.17185C19.27 7.24109 20.3798 6.95451 20.5987 6.71661C20.8042 6.49357 21.0786 5.48786 20.1919 5.26753Z" fill="black"/>
<path d="M20.8853 8.29412C20.8678 8.14408 22.5412 7.6223 23.3563 7.33843C23.5523 7.27084 23.7524 7.20326 23.9592 7.1965C24.1998 7.19109 24.4323 7.26814 24.6621 7.34519C25.4583 7.61284 27.3062 8.16435 27.321 8.40091C27.3332 8.59015 25.3867 9.49313 23.9173 9.77294C22.402 9.2444 20.9218 8.59421 20.8853 8.29412Z" fill="#FFAE00"/>
</svg>
