<svg width="49" height="51" viewBox="0 0 49 51" fill="none" xmlns="http://www.w3.org/2000/svg">
<path d="M0.956282 27.3623C1.04953 20.1134 1.63738 19.4986 3.3104 15.4674C6.93617 6.732 14.4931 0.229126 24.1934 0.229126C33.3761 0.229126 41.1993 6.05766 45.3994 14.0876C46.594 16.3701 48.5346 20.577 48.1562 28.0704C47.4481 42.0573 37.9776 50.2291 24.1934 50.2291C10.4106 50.2291 0.773845 41.3654 0.956282 27.3623Z" fill="#5C5C5C"/>
<path d="M3.96582 25.342C3.96582 12.3402 13.162 1.80212 24.5069 1.80212C35.8532 1.80212 45.0494 12.3402 45.0494 25.342C45.0494 38.3423 35.8532 48.8804 24.5069 48.8804C13.162 48.8804 3.96582 38.3423 3.96582 25.342Z" fill="white"/>
<path d="M9.57813 39.9586C8.54972 41.1897 7.98214 42.833 8.25106 44.4033C8.51999 45.9736 9.70245 47.4101 11.2714 47.8074C12.2917 48.0669 13.3782 47.8939 14.3823 47.5763C15.2094 47.3169 16.0242 46.9466 16.6445 46.3479C17.7473 45.2817 18.0675 43.556 17.5567 42.1208C17.0459 40.6843 15.7851 39.564 14.3256 39.0545C12.7215 38.4977 10.6511 38.6707 9.57813 39.9586Z" fill="#424545"/>
<path d="M34.5342 39.6018C33.5072 40.833 32.9396 42.4762 33.2072 44.0466C33.4761 45.6182 34.6586 47.0534 36.2275 47.4548C37.2478 47.7142 38.3343 47.5385 39.3384 47.2196C40.1668 46.9602 40.9803 46.5939 41.6006 45.9953C42.7047 44.9263 43.0236 43.1992 42.5128 41.7641C42.0033 40.3275 40.7412 39.2072 39.283 38.7018C37.6776 38.1451 35.6072 38.318 34.5342 39.6018Z" fill="#424545"/>
<path d="M24.6582 15.1877C19.3621 15.2012 9.29971 17.9485 9.1943 14.0944C9.01997 7.75638 18.8702 2.81571 23.6879 2.72922C30.3489 2.61165 38.5546 6.3104 39.2965 13.8457C39.564 16.5647 29.4192 15.1741 24.6582 15.1877Z" fill="#5C5C5C"/>
<path d="M20.9068 12.3781C22.3217 14.5863 27.8367 14.2917 29.1732 12.0294C29.9922 10.6416 27.5867 6.42793 24.8947 6.39009C22.4014 6.35496 19.2932 9.8564 20.9068 12.3781Z" fill="#FFD1D6"/>
<path d="M23.3367 22.5568C23.3367 21.8514 23.7367 21.2797 24.2299 21.2797C24.7232 21.2797 25.1232 21.8514 25.1232 22.5568C25.1232 23.2622 24.7232 23.8325 24.2299 23.8325C23.7367 23.8325 23.3367 23.2622 23.3367 22.5568Z" fill="#5C5C5C"/>
<path d="M8.45508 35.3436C8.45508 34.6409 8.85509 34.0665 9.3497 34.0665C9.84295 34.0665 10.243 34.6409 10.243 35.3436C10.243 36.049 9.84295 36.6193 9.3497 36.6193C8.85509 36.6193 8.45508 36.049 8.45508 35.3436Z" fill="#5C5C5C"/>
<path d="M13.5714 26.438C13.5714 25.7325 13.9714 25.1609 14.4647 25.1609C14.9579 25.1609 15.3579 25.7325 15.3579 26.438C15.3579 27.1434 14.9579 27.715 14.4647 27.715C13.9714 27.715 13.5714 27.1434 13.5714 26.438Z" fill="#5C5C5C"/>
<path d="M33.1017 26.438C33.1017 25.7325 33.5017 25.1609 33.995 25.1609C34.4882 25.1609 34.8882 25.7325 34.8882 26.438C34.8882 27.1434 34.4882 27.715 33.995 27.715C33.5017 27.715 33.1017 27.1434 33.1017 26.438Z" fill="#5C5C5C"/>
<path d="M39.1465 35.799C39.1465 35.0976 39.5465 34.526 40.0398 34.526C40.533 34.526 40.933 35.0976 40.933 35.799C40.933 36.5058 40.533 37.0761 40.0398 37.0761C39.5465 37.0761 39.1465 36.5058 39.1465 35.799Z" fill="#5C5C5C"/>
<path d="M1.43066 28.4961C3.47531 22.7851 9.09033 18.8337 15.0513 17.2836C21.0136 15.7336 27.5814 15.1876 33.4207 17.135C39.7385 19.2458 42.9156 21.7783 46.1954 27.2717C44.5183 26.7258 26.4462 9.27799 3.87397 26.0568C2.93206 26.7568 2.06311 27.6285 1.43066 28.4961Z" fill="#5C5C5C"/>
<path d="M3.95901 20.1418C8.21183 22.6946 9.65782 26.8123 11.0579 29.2543C11.5903 30.1813 12.143 31.3327 11.5903 32.2503C11.3957 32.5719 11.0862 32.8111 10.7592 33.0003C9.43078 33.7868 7.76723 33.8868 6.25908 33.5409C4.75228 33.1908 3.37521 32.43 2.09275 31.5786C1.84544 31.4165 1.59544 31.2394 1.43732 30.9948C1.13191 30.5205 1.4157 29.9218 1.38597 29.361C1.16434 25.3271 2.19275 24.3974 3.95901 20.1418Z" fill="#5C5C5C"/>
<path d="M45.0994 20.1418C40.8466 22.6946 39.4006 26.8123 38.0005 29.2543C37.4681 30.1813 36.9154 31.3327 37.4681 32.2503C37.6627 32.5719 37.9722 32.8111 38.2992 33.0003C39.6276 33.7868 41.2912 33.8868 42.7993 33.5409C44.3061 33.1908 45.6832 32.43 46.9657 31.5786C47.2116 31.4165 47.463 31.2394 47.6211 30.9948C47.9265 30.5205 47.6414 29.9218 47.6724 29.361C47.8941 25.3271 46.8657 24.3974 45.0994 20.1418Z" fill="#5C5C5C"/>
<path d="M20.8987 10.801C21.0163 9.52801 21.6703 8.31312 22.6731 7.50093C23.3244 6.97119 24.1555 6.60767 24.9961 6.68064C25.6299 6.73199 26.2177 7.0293 26.7407 7.38606C27.8178 8.12257 28.7232 9.58342 28.8935 10.8632C28.1259 11.3335 26.1394 12.0781 24.861 12.0362C23.4582 11.9943 22.1406 11.4551 20.8987 10.801Z" fill="#2E2E2E"/>
<path d="M27.5151 5.43471C27.5178 5.21714 27.853 4.96172 28.0692 5.00227C28.2841 5.04416 28.4625 5.20632 28.5598 5.40092C28.6571 5.59417 28.6814 5.8158 28.6719 6.03337C28.6611 6.28608 28.5895 6.55906 28.3773 6.70096C28.2138 6.81177 27.757 6.68069 27.5908 6.57663C27.4232 6.47258 27.5138 5.53606 27.5151 5.43471Z" fill="black"/>
<path d="M21.8662 5.25902C21.8649 5.04009 21.5284 4.78468 21.3135 4.82657C21.0973 4.86711 20.9189 5.03063 20.8216 5.22388C20.7257 5.41848 20.7014 5.63876 20.7095 5.85363C20.7216 6.10634 20.7932 6.38337 21.0054 6.52527C21.1676 6.63608 21.6243 6.50365 21.7919 6.40094C21.9581 6.29688 21.8676 5.35902 21.8662 5.25902Z" fill="black"/>
</svg>
