<svg width="48" height="51" viewBox="0 0 48 51" fill="none" xmlns="http://www.w3.org/2000/svg">
<path d="M1.64824 27.6119C2.33852 19.1203 2.29792 19.9927 3.89066 16.0868C7.34075 7.62268 14.533 1.32111 23.7647 1.32111C32.5051 1.32111 39.9502 6.96777 43.9478 14.7494C45.0847 16.9631 46.3199 18.9199 46.5714 28.3009C46.9342 41.8655 36.8839 49.7716 23.7647 49.7716C10.6467 49.7716 0.550607 41.1372 1.64824 27.6119Z" fill="#784626"/>
<path d="M23.9847 48.9975C24.1943 48.9975 24.3842 49.08 24.5244 49.2162C24.658 49.0721 24.8466 48.9791 25.0588 48.9713C25.419 48.9556 25.7805 48.9346 26.1355 48.9071C26.3463 48.8901 26.5441 48.9608 26.6934 49.0865C26.8166 48.9346 26.9973 48.8285 27.2082 48.8049C27.5645 48.763 27.9247 48.7145 28.2744 48.6608C28.4827 48.6281 28.6857 48.6831 28.8455 48.7971C28.9555 48.6373 29.1271 48.5168 29.3341 48.4762C29.689 48.408 30.0414 48.3308 30.3845 48.2496C30.5902 48.2011 30.7945 48.2391 30.9622 48.3386C31.0591 48.1697 31.2202 48.0374 31.4219 47.9797C31.769 47.8815 32.1135 47.7754 32.4475 47.6641C32.6466 47.5986 32.8549 47.6182 33.0291 47.7034C33.1116 47.5265 33.2596 47.3798 33.4548 47.3039C33.7901 47.1755 34.1228 47.038 34.4437 46.8965C34.6349 46.8127 34.8432 46.8127 35.0252 46.8808C35.0907 46.6974 35.223 46.5376 35.4103 46.4433C35.7273 46.2848 36.0443 46.1159 36.3521 45.943C36.5342 45.8395 36.7398 45.8185 36.9271 45.867C36.9716 45.6784 37.0882 45.5068 37.2637 45.3941C37.565 45.2016 37.861 45.0012 38.1453 44.7982C38.3142 44.6764 38.5159 44.6331 38.7085 44.6606C38.7321 44.4694 38.8277 44.2847 38.9901 44.155C39.2638 43.9324 39.535 43.7005 39.7956 43.4661C39.9489 43.3259 40.1427 43.2617 40.3366 43.2657C40.3392 43.0731 40.4139 42.8806 40.5593 42.7326C40.8055 42.4811 41.0478 42.2191 41.2784 41.9558C41.4146 41.7974 41.6019 41.7096 41.7931 41.6926C41.7722 41.5 41.8232 41.3009 41.9503 41.1359C42.1651 40.8556 42.3747 40.5661 42.5712 40.2766C42.6877 40.1038 42.8619 39.9937 43.0506 39.9531C43.0073 39.7658 43.0335 39.5615 43.1396 39.382C43.3191 39.0808 43.4907 38.769 43.6531 38.456C43.7487 38.27 43.9085 38.1403 44.0906 38.0774C44.0251 37.8967 44.0264 37.6897 44.1102 37.4998C44.2517 37.1802 44.3879 36.8488 44.5123 36.5188C44.5857 36.3236 44.7297 36.1743 44.904 36.0918C44.8175 35.9189 44.7952 35.7132 44.8581 35.5141C44.9629 35.1788 45.0598 34.8343 45.1476 34.4911C45.1987 34.2881 45.3257 34.1244 45.4908 34.0235C45.386 33.8598 45.3414 33.6581 45.382 33.4538C45.4515 33.1067 45.513 32.753 45.5641 32.4007C45.5942 32.1937 45.7043 32.0182 45.8588 31.899C45.7383 31.7484 45.6728 31.5506 45.6938 31.341C45.7278 30.9913 45.7553 30.6324 45.7737 30.2735C45.7842 30.0639 45.8785 29.8779 46.0212 29.7456C45.885 29.6042 45.8025 29.4129 45.8051 29.2008L45.8064 29.0082C45.8064 28.7803 45.8025 28.5511 45.7959 28.3206L45.7907 28.1254C45.7842 27.9106 45.8667 27.7128 46.0042 27.5687C45.8575 27.4338 45.7632 27.2426 45.754 27.0278C45.7383 26.6492 45.7226 26.2864 45.7043 25.934C45.6925 25.7192 45.7698 25.5215 45.9034 25.3734C45.7527 25.2438 45.6532 25.0552 45.6388 24.8403C45.6126 24.4618 45.5851 24.1003 45.5562 23.7532C45.5366 23.541 45.606 23.3406 45.7331 23.19C45.5798 23.0655 45.4737 22.8822 45.4502 22.6713C45.4095 22.294 45.365 21.9312 45.3192 21.5946C45.2904 21.385 45.348 21.1833 45.4659 21.0261C45.3061 20.9122 45.1908 20.738 45.1541 20.5297C45.09 20.163 45.0205 19.8106 44.9472 19.4818C44.9026 19.2775 44.9419 19.0758 45.0415 18.9108C44.8751 18.8138 44.7455 18.6553 44.6878 18.4549C44.587 18.1065 44.4809 17.7817 44.363 17.4621C44.291 17.2695 44.3014 17.0665 44.3748 16.891C44.198 16.8203 44.0473 16.6854 43.9609 16.4981C43.8011 16.1523 43.6374 15.8353 43.4841 15.5393C43.3859 15.348 43.3741 15.1345 43.4356 14.9446C43.247 14.8883 43.0794 14.7599 42.9785 14.5726C42.8082 14.2569 42.6301 13.9426 42.448 13.6374C42.3406 13.4566 42.3157 13.2484 42.3616 13.0585C42.1717 13.0152 41.9961 12.9013 41.8822 12.7245C41.687 12.4245 41.4853 12.1246 41.2797 11.8338C41.1579 11.6622 41.1159 11.4578 41.1474 11.264C40.9535 11.2378 40.7701 11.1369 40.6418 10.9706C40.4243 10.6877 40.1991 10.4061 39.9698 10.1323C39.8349 9.9712 39.776 9.7721 39.7917 9.57694C39.5965 9.56515 39.4066 9.48001 39.2638 9.32545C39.0255 9.06218 38.7766 8.80152 38.5251 8.54873C38.3771 8.39941 38.3024 8.20424 38.2998 8.00908C38.1046 8.01694 37.9082 7.94752 37.7536 7.80474C37.4916 7.56374 37.2218 7.32535 36.9507 7.09613C36.7896 6.96122 36.6979 6.77391 36.6782 6.58006C36.487 6.60363 36.284 6.55386 36.1176 6.4255C35.8334 6.20938 35.5426 5.99587 35.2532 5.79547C35.0816 5.67497 34.9729 5.49814 34.9362 5.30691C34.7449 5.34882 34.5393 5.31738 34.3625 5.20605C34.0612 5.01874 33.7521 4.83537 33.443 4.66247C33.2609 4.5603 33.1352 4.39527 33.0802 4.20927C32.8942 4.26821 32.6885 4.25904 32.4999 4.16605C32.1803 4.00756 31.8555 3.85693 31.5319 3.71678C31.3407 3.63426 31.1992 3.48232 31.1246 3.30287C30.9464 3.38146 30.7395 3.39325 30.543 3.3199C30.2129 3.19678 29.8737 3.08151 29.5358 2.97541C29.3354 2.91385 29.1795 2.77763 29.0865 2.60735C28.9175 2.70428 28.7132 2.73834 28.5102 2.68725C28.167 2.59949 27.8173 2.52222 27.4715 2.4541C27.2658 2.4135 27.0956 2.29692 26.9855 2.13713C26.8284 2.25239 26.6279 2.3074 26.421 2.27859C26.0726 2.23012 25.7176 2.19083 25.3653 2.16201C25.157 2.14499 24.9749 2.04675 24.8466 1.90136C24.7038 2.03234 24.51 2.10962 24.303 2.10307C24.1209 2.09783 23.9389 2.09259 23.7542 2.09521C23.5813 2.09521 23.411 2.09783 23.2394 2.10307C23.0325 2.10962 22.8386 2.03103 22.6959 1.90005C22.5688 2.04544 22.3867 2.14368 22.1785 2.1607C21.8274 2.19083 21.4725 2.23012 21.1241 2.2799C20.9171 2.30871 20.718 2.25239 20.5621 2.13975C20.4508 2.29823 20.2818 2.41612 20.0775 2.45672C19.7317 2.52614 19.3833 2.60604 19.0427 2.69511C18.841 2.74751 18.638 2.71607 18.469 2.62176C18.3774 2.79204 18.2228 2.92826 18.025 2.99244C17.6897 3.10116 17.3544 3.22035 17.0269 3.34741C16.8331 3.42338 16.6261 3.41552 16.448 3.34086C16.3772 3.5203 16.2384 3.67355 16.0498 3.76C15.7289 3.90539 15.408 4.06257 15.0962 4.22761C14.9102 4.32454 14.7046 4.34025 14.5186 4.28524C14.4675 4.47255 14.3483 4.64151 14.1689 4.74761C13.8663 4.92968 13.5637 5.12091 13.2703 5.31869C13.0961 5.43527 12.8931 5.47325 12.7006 5.4392C12.6718 5.63043 12.5696 5.81119 12.4019 5.93693C12.1203 6.14912 11.8387 6.3731 11.5663 6.60101C11.4051 6.73462 11.2034 6.79356 11.0109 6.77915C11.0004 6.973 10.9179 7.16293 10.7633 7.3057C10.504 7.5454 10.2446 7.79689 9.99578 8.05099C9.84776 8.20162 9.65391 8.2789 9.45875 8.28283C9.46792 8.478 9.40242 8.67578 9.26227 8.83296C9.0265 9.09492 8.79204 9.36999 8.56544 9.64767C8.43184 9.8114 8.24585 9.90571 8.05199 9.92797C8.07819 10.1218 8.03104 10.3249 7.90529 10.4951C7.6931 10.7794 7.48353 11.0741 7.28051 11.3701C7.16262 11.5443 6.98448 11.6556 6.79194 11.6936C6.83516 11.8849 6.80635 12.0918 6.69501 12.2726C6.5064 12.5738 6.32171 12.8856 6.14489 13.1973C6.04141 13.382 5.87244 13.5064 5.68383 13.5601C5.74277 13.7474 5.73098 13.957 5.63405 14.1456C5.47033 14.4613 5.31184 14.7874 5.1599 15.1136C5.06952 15.3048 4.91234 15.4437 4.72765 15.5118C4.801 15.6938 4.80493 15.9047 4.72241 16.0999C4.68312 16.1929 4.64514 16.2859 4.60715 16.3789C4.49843 16.6461 4.39627 16.891 4.30196 17.1189C4.21944 17.318 4.06357 17.4634 3.87758 17.5394C3.95486 17.7214 3.96272 17.9349 3.88151 18.1327C3.71254 18.5466 3.59989 18.8413 3.50559 19.119C3.4414 19.3103 3.30911 19.4583 3.14669 19.5486C3.23838 19.7098 3.27244 19.9049 3.22921 20.1014C3.1611 20.404 3.09954 20.7406 3.04191 21.1283C3.01178 21.3366 2.90045 21.5134 2.74589 21.6313C2.86639 21.7871 2.92926 21.9862 2.90569 22.1971C2.86901 22.5246 2.83234 22.8835 2.79435 23.2817C2.7747 23.4965 2.66861 23.6811 2.51405 23.8082C2.64372 23.9601 2.71314 24.1619 2.6948 24.3767C2.66468 24.7185 2.63455 25.0827 2.60181 25.4743C2.58347 25.6891 2.47868 25.8777 2.32543 26.0048C2.45511 26.1567 2.52846 26.3584 2.51012 26.5732L2.42105 27.6748C2.40926 27.8202 2.39878 27.9643 2.38961 28.1097C2.37652 28.3192 2.27959 28.5039 2.13551 28.6349C2.26911 28.7764 2.34901 28.9689 2.34508 29.1798C2.34246 29.3213 2.34115 29.4627 2.34115 29.6029C2.34115 29.8203 2.34377 30.0351 2.35032 30.2486C2.35687 30.4595 2.27828 30.652 2.1473 30.7961C2.29269 30.9245 2.39092 31.1066 2.40664 31.3161C2.43546 31.6724 2.47213 32.0287 2.51667 32.3771C2.54417 32.584 2.48654 32.7831 2.37128 32.9377C2.52846 33.0503 2.64372 33.2219 2.68302 33.4276C2.7472 33.776 2.82186 34.1257 2.90307 34.4676C2.95284 34.6706 2.91616 34.8736 2.81924 35.04C2.9882 35.1356 3.12181 35.2928 3.18206 35.4932C3.28423 35.8298 3.39687 36.1677 3.51737 36.4991C3.58941 36.6943 3.57763 36.8999 3.49904 37.0767C3.67717 37.1501 3.82911 37.2902 3.91163 37.4815C4.05309 37.8063 4.20503 38.1285 4.36352 38.4403C4.45783 38.625 4.46962 38.8319 4.41461 39.0153C4.59929 39.0677 4.76564 39.1895 4.87173 39.3689C5.04856 39.6715 5.23718 39.9728 5.43496 40.2649C5.55022 40.4378 5.58821 40.6395 5.55415 40.8294C5.74408 40.8595 5.92353 40.9591 6.04927 41.1241C6.26277 41.4031 6.48675 41.6808 6.71728 41.9467C6.85219 42.1052 6.91375 42.3016 6.90328 42.4942C7.09582 42.5007 7.28705 42.5793 7.43245 42.7286C7.67738 42.9801 7.9328 43.229 8.19345 43.4687C8.34801 43.6102 8.43184 43.7988 8.44363 43.9913C8.63749 43.9756 8.83527 44.0319 8.99769 44.1629C9.27013 44.3856 9.55436 44.6043 9.84122 44.8126C10.0102 44.9357 10.115 45.1151 10.1477 45.3051C10.3389 45.2684 10.5433 45.3011 10.7175 45.4138C11.0161 45.6063 11.3213 45.7923 11.6278 45.9692C11.8086 46.0726 11.933 46.239 11.9867 46.425C12.1714 46.3686 12.3783 46.3804 12.5657 46.4747C12.88 46.6345 13.2048 46.7891 13.5297 46.9332C13.7209 47.0183 13.8611 47.1716 13.9331 47.3523C14.1126 47.2764 14.3195 47.2672 14.516 47.3432C14.8461 47.4715 15.184 47.5933 15.5219 47.7073C15.721 47.7741 15.8756 47.9142 15.9647 48.0871C16.1362 47.9941 16.3432 47.9666 16.5449 48.023C16.8842 48.1199 17.2339 48.2116 17.5823 48.2941C17.7866 48.3426 17.953 48.4683 18.0578 48.6333C18.2202 48.5259 18.4245 48.4788 18.6315 48.5194C18.9773 48.5862 19.3335 48.6464 19.6885 48.7001C19.8981 48.7316 20.0749 48.8429 20.1915 48.9988C20.346 48.8783 20.5438 48.8141 20.756 48.8364C21.107 48.8757 21.4685 48.9071 21.8261 48.932C22.037 48.9464 22.223 49.0433 22.3527 49.19C22.4968 49.0564 22.6919 48.9804 22.9015 48.9844C23.1883 48.9922 23.4765 48.9975 23.766 48.9975H23.9847ZM23.766 50.547C23.4608 50.547 23.1569 50.5418 22.8556 50.5326C22.633 50.526 22.4365 50.4265 22.299 50.2732C22.1483 50.4134 21.9401 50.4894 21.7213 50.4776C21.3428 50.4514 20.9603 50.4173 20.5883 50.3767C20.367 50.3531 20.1784 50.2379 20.0539 50.0741C19.8928 50.2025 19.6806 50.2641 19.4606 50.2326C19.082 50.1763 18.7048 50.1108 18.3381 50.0401C18.1193 49.9982 17.9399 49.8685 17.8298 49.6943C17.6583 49.8083 17.4408 49.8528 17.2234 49.8017C16.8527 49.7126 16.482 49.6157 16.1205 49.5135C15.9057 49.452 15.7394 49.3066 15.6437 49.1232C15.463 49.2201 15.2416 49.2463 15.0294 49.1756C14.6692 49.0551 14.3077 48.9241 13.9554 48.7879C13.7471 48.7067 13.5939 48.5456 13.5166 48.353C13.3254 48.4342 13.1027 48.4382 12.8984 48.3478C12.5512 48.1932 12.2041 48.0269 11.8649 47.8566C11.6658 47.7558 11.5296 47.5789 11.4719 47.3798C11.2729 47.4414 11.0515 47.4231 10.8576 47.3117C10.5276 47.1231 10.1988 46.9227 9.87789 46.7158C9.68928 46.5939 9.57139 46.404 9.53472 46.1997C9.33169 46.2403 9.11164 46.1984 8.93089 46.0661C8.62046 45.8408 8.31265 45.6037 8.01794 45.364C7.84373 45.2226 7.74811 45.0195 7.73502 44.8113C7.52675 44.8283 7.31325 44.7628 7.1469 44.6109C6.86398 44.3515 6.5863 44.0804 6.3204 43.8079C6.16453 43.6468 6.09249 43.4346 6.10297 43.2264C5.89471 43.2198 5.69038 43.1281 5.54368 42.9579C5.2935 42.6684 5.04987 42.3671 4.81803 42.0646C4.68181 41.8864 4.63466 41.6677 4.67133 41.462C4.46569 41.4293 4.27314 41.3153 4.1474 41.128C3.93521 40.8097 3.72826 40.4823 3.53571 40.1535C3.42045 39.9584 3.4008 39.7357 3.46105 39.5366C3.26196 39.4803 3.08382 39.3427 2.98297 39.1423C2.81007 38.8031 2.64503 38.4521 2.49178 38.0997C2.4014 37.8941 2.40795 37.6701 2.49178 37.4789C2.30055 37.399 2.14075 37.2418 2.06347 37.0309C1.93248 36.6733 1.80936 36.3066 1.69934 35.9398C1.63384 35.725 1.66659 35.505 1.77269 35.3255C1.59062 35.2233 1.45047 35.0491 1.39808 34.8317C1.30901 34.4623 1.22911 34.0851 1.15838 33.7079C1.11908 33.4878 1.1754 33.273 1.29853 33.1053C1.12956 32.9848 1.01037 32.7975 0.981551 32.5749C0.933087 32.2029 0.892482 31.8191 0.862357 31.4366C0.845329 31.214 0.923918 31.0057 1.06407 30.8524C0.90951 30.7162 0.808654 30.5171 0.802105 30.2945C0.795556 30.0652 0.791626 29.8347 0.791626 29.6016C0.791626 29.4522 0.792936 29.3016 0.796865 29.151C0.800795 28.9283 0.899031 28.7292 1.05228 28.5917C0.91082 28.4397 0.828301 28.2328 0.842709 28.0101C0.853188 27.8569 0.863667 27.7036 0.876765 27.5491L0.965833 26.4475C0.984171 26.2314 1.08896 26.0441 1.24352 25.9157C1.11122 25.7638 1.03918 25.5607 1.05752 25.3446C1.09027 24.9517 1.1217 24.5836 1.15183 24.2418C1.17017 24.0243 1.27757 23.837 1.43344 23.71C1.30246 23.5554 1.23173 23.3524 1.25268 23.135C1.29198 22.7263 1.32865 22.3595 1.36664 22.0242C1.39153 21.8055 1.50417 21.6182 1.66659 21.4937C1.54085 21.3326 1.47797 21.1217 1.50941 20.9017C1.57359 20.4747 1.64039 20.1014 1.71767 19.7608C1.76876 19.5355 1.91153 19.3561 2.09883 19.2526C1.99405 19.0679 1.96523 18.8387 2.03858 18.6213C2.14468 18.3122 2.26649 17.9913 2.44725 17.5472C2.52977 17.3455 2.68694 17.1975 2.87425 17.1215C2.79566 16.9382 2.78911 16.7234 2.87163 16.5243C2.96594 16.299 3.06548 16.058 3.17289 15.7934C3.21349 15.6951 3.2541 15.5969 3.2947 15.4987C3.38115 15.293 3.54488 15.145 3.73874 15.073C3.66277 14.8817 3.66146 14.6617 3.75576 14.4587C3.91556 14.1155 4.08453 13.771 4.25612 13.437C4.35828 13.2392 4.5338 13.103 4.73158 13.0467C4.67002 12.8489 4.68836 12.6288 4.79707 12.435C4.98307 12.1049 5.17954 11.7748 5.37864 11.4539C5.49652 11.2653 5.68252 11.1435 5.88554 11.1029C5.8397 10.9012 5.87506 10.6824 6.00081 10.4977C6.21431 10.1834 6.43698 9.87034 6.66227 9.56908C6.79587 9.38963 6.99234 9.28485 7.19799 9.26127C7.17048 9.05694 7.22418 8.84082 7.36564 8.66792C7.60796 8.3719 7.85683 8.08112 8.10701 7.79951C8.25633 7.63316 8.46197 7.54671 8.66892 7.54147C8.65975 7.33452 8.73441 7.12494 8.89028 6.96515C9.15749 6.6927 9.43386 6.42419 9.71154 6.16877C9.87658 6.01683 10.0888 5.95003 10.2957 5.96444C10.3075 5.75749 10.4005 5.55577 10.5721 5.413C10.8655 5.16675 11.1668 4.92706 11.4706 4.70046C11.6488 4.56423 11.8675 4.5197 12.0732 4.55638C12.1046 4.35073 12.2186 4.1595 12.4045 4.03375C12.7215 3.82025 13.0464 3.6133 13.3738 3.41814C13.5664 3.30287 13.7877 3.28191 13.9881 3.33955C14.0418 3.13914 14.1767 2.96101 14.3758 2.85622C14.7138 2.67939 15.0609 2.50781 15.4067 2.35063C15.6097 2.25763 15.8337 2.26025 16.0262 2.34015C16.1035 2.14761 16.2567 1.98519 16.4663 1.90398C16.8213 1.76645 17.1854 1.63677 17.5482 1.51889C17.7617 1.44947 17.9831 1.47828 18.1652 1.58045C18.2634 1.39707 18.435 1.25299 18.6524 1.19667C19.0218 1.10105 19.399 1.0133 19.7736 0.938635C19.9937 0.894101 20.2111 0.947804 20.3801 1.07093C20.498 0.899341 20.6853 0.776217 20.9079 0.746091C21.2852 0.692388 21.6703 0.649164 22.0501 0.617728C22.2728 0.59808 22.4823 0.67798 22.6369 0.818131C22.7744 0.662262 22.9722 0.561405 23.1975 0.554856C23.3861 0.549617 23.5852 0.549617 23.766 0.546997C23.9598 0.546997 24.1537 0.549617 24.3462 0.554856C24.5702 0.561405 24.7693 0.662262 24.9068 0.818131C25.0601 0.67798 25.2683 0.6007 25.4923 0.617728C25.8735 0.649164 26.2573 0.692388 26.6345 0.744781C26.8572 0.774907 27.0445 0.89803 27.1624 1.06831C27.3313 0.945184 27.5474 0.890172 27.7688 0.933396C28.1421 1.00675 28.5193 1.09188 28.89 1.18488C29.1075 1.23989 29.2803 1.38267 29.3799 1.56473C29.5607 1.46126 29.782 1.43113 29.9968 1.49793C30.361 1.61058 30.7264 1.73501 31.0827 1.8673C31.2922 1.94589 31.4494 2.10569 31.5293 2.29692C31.7179 2.2131 31.9419 2.20655 32.1476 2.29562C32.4934 2.44494 32.8431 2.60735 33.1862 2.77763C33.388 2.87587 33.5255 3.05138 33.5857 3.24917C33.7835 3.18499 34.0049 3.20201 34.2001 3.31073C34.5314 3.49542 34.8615 3.69189 35.1837 3.8936C35.3737 4.0128 35.4942 4.19879 35.5335 4.40182C35.7352 4.35859 35.9552 4.39658 36.1386 4.52363C36.4464 4.73844 36.7568 4.96504 37.0594 5.19688C37.2362 5.3331 37.3384 5.52958 37.3594 5.73522C37.5637 5.71164 37.7785 5.76796 37.9488 5.91205C38.2382 6.15567 38.5251 6.40847 38.8041 6.66651C38.9678 6.81714 39.0517 7.02147 39.053 7.22842C39.2599 7.22318 39.4669 7.29915 39.624 7.45633C39.8913 7.72484 40.1545 8.00253 40.4086 8.28152C40.5593 8.44525 40.6248 8.65744 40.609 8.86308C40.8147 8.87487 41.0151 8.96787 41.1579 9.13815C41.4002 9.42762 41.6399 9.72626 41.8691 10.0249C42.0053 10.2017 42.0538 10.4165 42.021 10.6209C42.2241 10.6497 42.4166 10.7584 42.545 10.9405C42.7624 11.2483 42.9759 11.5639 43.1815 11.8822C43.302 12.0682 43.3335 12.287 43.2837 12.4861C43.4854 12.5319 43.6675 12.6563 43.7814 12.8463C43.9714 13.1685 44.16 13.5025 44.3407 13.8352C44.4455 14.029 44.4599 14.2478 44.3971 14.4416C44.5896 14.5006 44.7599 14.6342 44.8607 14.8267C45.014 15.1241 45.1934 15.4725 45.3663 15.8471C45.4619 16.0527 45.4593 16.2793 45.3768 16.4732C45.5733 16.5518 45.7357 16.7089 45.8143 16.9224C45.9479 17.28 46.0658 17.6415 46.1771 18.0279C46.2387 18.2441 46.202 18.4654 46.0946 18.6436C46.274 18.7483 46.4103 18.9252 46.4587 19.1452C46.5386 19.4976 46.612 19.8748 46.6801 20.2638C46.7181 20.4826 46.6604 20.6961 46.5373 20.8598C46.705 20.9803 46.8229 21.165 46.8543 21.3837C46.9014 21.7347 46.9473 22.1107 46.9905 22.5023C47.0141 22.721 46.9447 22.928 46.8137 23.0839C46.9722 23.2122 47.0796 23.4022 47.0992 23.6209C47.1294 23.9759 47.1582 24.3492 47.1844 24.7369C47.1988 24.9556 47.1215 25.1586 46.9853 25.3093C47.1385 25.4416 47.2394 25.6341 47.2512 25.8528C47.2695 26.2104 47.2865 26.5811 47.3022 26.9675C47.3101 27.1849 47.2276 27.3853 47.0887 27.532C47.2368 27.6683 47.3324 27.8621 47.3389 28.0795L47.3455 28.2773C47.352 28.5249 47.3546 28.7672 47.3546 29.0082L47.3533 29.2165C47.352 29.4378 47.2564 29.6382 47.1058 29.7784C47.2485 29.9264 47.3311 30.132 47.3206 30.3534C47.3009 30.7359 47.2721 31.1197 47.2354 31.493C47.2132 31.7143 47.1005 31.9055 46.9355 32.0313C47.0652 32.1924 47.1293 32.4059 47.0966 32.6273C47.0416 33.0032 46.9761 33.383 46.9014 33.7537C46.8582 33.9738 46.7259 34.1532 46.5491 34.2632C46.6617 34.4374 46.7037 34.6562 46.6486 34.8723C46.5543 35.243 46.4495 35.615 46.3356 35.9765C46.2688 36.1913 46.1182 36.355 45.9295 36.4441C46.0225 36.6301 46.0409 36.8528 45.9623 37.0636C45.8274 37.4225 45.6807 37.7814 45.5261 38.1285C45.4357 38.3329 45.2655 38.4796 45.069 38.5464C45.1397 38.7428 45.1319 38.9655 45.0297 39.1659C44.8529 39.5065 44.6656 39.8457 44.4704 40.1732C44.3564 40.367 44.1705 40.4915 43.9661 40.536C44.0133 40.739 43.9792 40.9591 43.8535 41.1451C43.64 41.462 43.4121 41.7764 43.1763 42.0803C43.0401 42.2584 42.8397 42.3606 42.6314 42.3802C42.655 42.5872 42.5947 42.802 42.4467 42.9723C42.1952 43.2604 41.932 43.5447 41.6648 43.8184C41.5076 43.9782 41.2941 44.0555 41.0897 44.0489C41.0871 44.2572 41.002 44.4629 40.8356 44.6148C40.554 44.8689 40.2606 45.1204 39.9633 45.3601C39.7878 45.5002 39.5703 45.5539 39.3647 45.5238C39.3385 45.7295 39.2298 45.9259 39.0477 46.0556C38.7412 46.2757 38.4216 46.4918 38.0981 46.7C37.9095 46.8205 37.6881 46.8494 37.4864 46.797C37.4379 46.9987 37.3096 47.1807 37.1144 47.2908C36.7843 47.4781 36.4438 47.6588 36.1032 47.8291C35.9041 47.9287 35.6815 47.9339 35.4863 47.8619C35.4182 48.057 35.2715 48.2247 35.0672 48.3151C34.724 48.467 34.369 48.6124 34.0101 48.7499C33.8019 48.8311 33.5805 48.8141 33.3945 48.7237C33.3081 48.9123 33.147 49.0643 32.9348 49.135C32.5798 49.2529 32.2144 49.3655 31.845 49.469C31.6315 49.5306 31.4127 49.4952 31.2359 49.3891C31.1324 49.5672 30.9595 49.7048 30.7421 49.7572C30.3806 49.8423 30.006 49.9235 29.6314 49.9969C29.4139 50.0401 29.1978 49.9864 29.0302 49.8659C28.9136 50.0349 28.7302 50.158 28.5102 50.192C28.1395 50.2484 27.7609 50.2994 27.385 50.344C27.1624 50.3689 26.9541 50.2981 26.7969 50.1658C26.6686 50.3256 26.476 50.4344 26.2546 50.4514C25.8827 50.4802 25.5015 50.5025 25.123 50.5182C24.9016 50.526 24.6986 50.4435 24.5506 50.2994C24.4104 50.4501 24.2113 50.5444 23.9886 50.5457" fill="#784626"/>
<path d="M10.0757 41.5877C9.09855 42.7823 8.55759 44.3737 8.81301 45.8958C9.06843 47.4165 10.1936 48.8075 11.6868 49.1952C12.6587 49.4467 13.6934 49.2764 14.6483 48.9699C15.4368 48.7171 16.2109 48.3608 16.8016 47.7806C17.8521 46.7471 18.156 45.0745 17.6701 43.6821C17.1841 42.2911 15.9843 41.2053 14.5946 40.7141C13.0673 40.1744 11.0973 40.3421 10.0757 41.5877Z" fill="#424242"/>
<path d="M33.8268 41.2446C32.8497 42.4379 32.31 44.0306 32.5654 45.5513C32.8208 47.072 33.946 48.4644 35.4392 48.8508C36.4098 49.1023 37.4445 48.9333 38.4007 48.6255C39.1879 48.3727 39.9633 48.0164 40.5527 47.4362C41.6032 46.4027 41.9071 44.7301 41.4212 43.339C40.9365 41.948 39.7354 40.8609 38.347 40.3697C36.8197 39.83 34.8485 39.9977 33.8268 41.2446Z" fill="#424242"/>
<path d="M26.9266 6.36655C26.9279 6.15436 27.2475 5.9068 27.4532 5.9474C27.6588 5.98801 27.8278 6.14519 27.9208 6.33118C28.0138 6.5198 28.036 6.73461 28.0269 6.94418C28.0164 7.18781 27.9496 7.45632 27.7466 7.59386C27.5907 7.69995 27.1571 7.57421 26.9973 7.47204C26.8389 7.37119 26.9253 6.46217 26.9266 6.36655Z" fill="black"/>
<path d="M21.551 6.19492C21.5484 5.98273 21.2288 5.73517 21.0245 5.77577C20.8188 5.81507 20.6486 5.97225 20.5556 6.15955C20.4639 6.34817 20.4403 6.56298 20.4495 6.77124C20.4599 7.01618 20.5281 7.28338 20.7298 7.42092C20.8856 7.52832 21.3205 7.40127 21.479 7.30041C21.6375 7.19825 21.551 6.29054 21.551 6.19492Z" fill="black"/>
<path d="M20.9551 8.94037C20.9368 8.79497 22.5583 8.28807 23.3482 8.01301C23.5381 7.94752 23.7319 7.88203 23.9323 7.87679C24.1655 7.87155 24.3921 7.94621 24.6135 8.02087C25.3849 8.28021 27.1755 8.81331 27.1899 9.04253C27.2017 9.22722 25.3155 10.1009 23.8917 10.372C22.4234 9.86117 20.9892 9.23115 20.9551 8.94037Z" fill="#42270D"/>
</svg>
