<svg width="48" height="51" viewBox="0 0 48 51" fill="none" xmlns="http://www.w3.org/2000/svg">
<path d="M0.985175 27.8908C1.21471 20.5781 1.65488 20.0366 3.29674 16.0089C6.85321 7.28519 14.2672 0.789307 23.7849 0.789307C32.7922 0.789307 40.4682 6.61008 44.5877 14.6317C45.761 16.9136 47.6554 22.521 47.2935 28.601C46.4577 42.5636 37.3073 50.7338 23.7849 50.7338C10.2612 50.7338 0.546355 41.871 0.985175 27.8908Z" fill="#696969"/>
<path d="M6.48189 10.1004C6.70603 8.83928 10.2828 5.5191 12.7901 3.98661C14.6872 2.82677 20.697 -0.396192 28.0502 1.1417C37.4734 3.11167 43.7546 10.1706 43.4481 13.0236C43.3617 13.8256 42.7689 14.4899 42.1033 14.945C40.8341 15.8118 39.2678 16.1088 37.7434 16.2911C35.0484 16.6125 32.3169 16.6341 29.6178 16.3559C27.8612 16.1737 19.7464 16.3937 17.231 16.2938C13.7353 16.1547 10.3057 14.71 7.7646 12.3053C6.99093 11.5721 6.39278 10.5959 6.48189 10.1004Z" fill="#383838"/>
<path d="M5.63666 33.1688C5.63666 24.0076 14.0566 16.58 24.4438 16.58C34.8297 16.58 43.251 24.0076 43.251 33.1688C43.251 42.3314 34.8297 49.7589 24.4438 49.7589C14.0566 49.7589 5.63666 42.3314 5.63666 33.1688Z" fill="white"/>
<path d="M11.4952 19.9259C12.6335 22.4845 15.9456 27.271 17.3187 29.7122C17.8413 30.6385 18.384 31.7889 17.8413 32.703C17.6509 33.0257 17.3457 33.2633 17.0257 33.4564C15.7228 34.2382 14.0904 34.3394 12.6105 33.9924C11.132 33.6441 7.72815 30.6047 6.46975 29.7541C6.22806 29.5894 5.98232 29.4165 5.82705 29.1694C5.5273 28.6955 5.62856 28.0798 5.77709 27.5384C6.63988 24.3694 8.76376 21.5623 11.4952 19.9259Z" fill="#696969"/>
<path d="M37.5247 20.1541C36.3865 22.7127 32.618 27.4993 31.2449 29.9404C30.7237 30.8667 30.1796 32.0171 30.7223 32.9312C30.9141 33.2525 31.2179 33.4915 31.5392 33.6846C32.8422 34.4664 34.4732 34.5676 35.9531 34.2206C37.4316 33.8723 41.2918 30.8329 42.5502 29.981C42.7919 29.8176 43.0377 29.6447 43.1929 29.3977C43.4927 28.9237 43.3914 28.308 43.2442 27.7666C42.3801 24.5976 40.2576 21.7905 37.5247 20.1541Z" fill="#696969"/>
<path d="M14.4779 19.0253C17.1635 17.4982 20.6065 16.58 24.3601 16.58C28.6497 16.58 32.5694 17.748 35.3455 19.7166C38.8088 22.174 32.8381 24.6665 24.2575 24.6665C15.6782 24.6665 11.0254 20.9899 14.4779 19.0253Z" fill="#FFEA00"/>
<path d="M16.6841 17.8668C18.7581 17.0634 21.418 16.58 24.3169 16.58C27.6303 16.58 30.6589 17.1944 32.803 18.2314C35.4791 19.5249 30.8654 20.8373 24.2372 20.8373C17.6104 20.8373 14.0161 18.9011 16.6841 17.8668Z" fill="#FFAA00"/>
<path d="M27.043 5.9903C27.0443 5.77156 27.3738 5.51637 27.5858 5.55823C27.7977 5.59873 27.9719 5.76076 28.0678 5.95384C28.1637 6.14827 28.1866 6.36971 28.1772 6.58574C28.1664 6.83688 28.0961 7.11233 27.8882 7.2541C27.7275 7.36482 27.2806 7.2352 27.1159 7.12988C26.9525 7.02456 27.0416 6.08886 27.043 5.9903Z" fill="black"/>
<path d="M21.5003 5.81212C21.499 5.59473 21.1695 5.33819 20.9575 5.38005C20.7469 5.4219 20.5714 5.58393 20.4769 5.77701C20.381 5.97009 20.3567 6.19288 20.3661 6.40756C20.377 6.66005 20.4472 6.93549 20.6551 7.07727C20.8158 7.18663 21.264 7.05701 21.4274 6.9517C21.5908 6.84773 21.503 5.91068 21.5003 5.81212Z" fill="black"/>
<path d="M20.8874 8.64348C20.8685 8.49226 22.54 7.97107 23.3542 7.68753C23.55 7.62002 23.7498 7.55251 23.9564 7.54711C24.1967 7.54035 24.4303 7.61732 24.6585 7.69428C25.4524 7.96297 27.2995 8.51251 27.3144 8.7488C27.3252 8.93783 25.3822 9.83977 23.9145 10.1193C22.401 9.59268 20.9225 8.94188 20.8874 8.64348Z" fill="#FFAE00"/>
<path d="M32.1009 15.6592C32.803 14.282 33.2513 12.7738 33.4011 11.2345C33.497 10.2529 33.4741 9.25376 33.7009 8.29376C33.9264 7.33241 34.457 6.37915 35.3468 5.95114C36.8158 5.24092 38.7034 6.38185 39.145 7.9535C39.5865 9.52381 38.8628 11.2359 37.7218 12.4025C36.5809 13.5691 35.0781 14.2982 33.6064 15.0043C33.0204 15.2852 32.4357 15.566 32.1009 15.6592Z" fill="#FFAA00"/>
<path d="M17.5523 15.6592C16.8488 14.282 16.4019 12.7738 16.2507 11.2345C16.1548 10.2529 16.1778 9.25376 15.9523 8.29376C15.7255 7.33241 15.1948 6.37915 14.3064 5.95114C12.8374 5.24092 10.9484 6.38185 10.5082 7.9535C10.0667 9.52381 10.7904 11.2359 11.93 12.4025C13.0709 13.5691 14.5751 14.2982 16.0455 15.0043C16.6315 15.2852 17.2175 15.566 17.5523 15.6592Z" fill="#FFAA00"/>
<path d="M9.67247 40.7017C8.66521 41.9317 8.10757 43.5736 8.37086 45.1412C8.63415 46.7088 9.79534 48.144 11.3332 48.5424C12.3351 48.8016 13.4018 48.6274 14.3861 48.3101C15.1989 48.0495 15.9969 47.6823 16.6058 47.0841C17.6887 46.0188 18.0019 44.2946 17.501 42.8607C17.0001 41.4267 15.7633 40.306 14.3307 39.7997C12.7564 39.2434 10.7256 39.4163 9.67247 40.7017Z" fill="#424242"/>
<path d="M34.1559 40.3465C33.1486 41.5766 32.5924 43.2185 32.8556 44.7861C33.1189 46.3537 34.2788 47.7889 35.818 48.1872C36.8185 48.4465 37.8852 48.271 38.8709 47.955C39.6823 47.6944 40.4817 47.3272 41.0893 46.729C42.1721 45.6637 42.4854 43.9395 41.9844 42.5055C41.4849 41.0716 40.2467 39.9523 38.8155 39.446C37.2411 38.8883 35.2091 39.0611 34.1559 40.3465Z" fill="#424242"/>
</svg>
