<svg width="48" height="51" viewBox="0 0 48 51" fill="none" xmlns="http://www.w3.org/2000/svg">
<path d="M0.76298 27.9972C0.814978 21.3281 1.4363 20.1348 3.08692 16.1029C6.66416 7.37112 14.12 0.864624 23.6904 0.864624C32.7501 0.864624 40.4686 6.69114 44.6125 14.7229C45.7911 17.0082 47.6657 21.8414 47.3311 28.7079C46.6511 42.6942 37.2887 50.8646 23.6904 50.8646C10.0921 50.8646 0.656316 41.9995 0.76298 27.9972Z" fill="#5C5C5C"/>
<path d="M3.73218 25.9773C3.73218 16.5149 8.54005 8.35778 15.4732 4.61655C18.0651 3.22059 21.5157 2.75927 24.125 9.04043C26.1796 2.69793 29.4635 3.09792 31.8888 4.28856C39.1632 7.8618 44.2671 16.2269 44.2671 25.9773C44.2671 38.977 35.1927 49.514 23.9996 49.514C12.8066 49.514 3.73218 38.977 3.73218 25.9773Z" fill="white"/>
<path d="M20.4118 9.12705C19.5945 9.10972 18.8345 8.53507 18.5386 7.77375C18.2426 7.01644 18.3946 6.11513 18.8679 5.45248C19.8012 4.14185 21.4478 4.46318 22.6171 5.56848C22.7664 5.70848 24.7157 5.65114 25.221 5.37382C25.725 5.09383 26.157 4.69117 26.681 4.45251C27.7796 3.95119 29.2089 4.31651 29.9289 5.28182C30.6489 6.24846 30.5822 7.71509 29.7796 8.6164C28.9756 9.51504 27.5183 9.75103 26.4703 9.15238C25.849 8.79773 25.345 8.18308 24.6371 8.07775C23.9704 7.97775 23.3398 8.36041 22.7238 8.63773C21.8545 9.02572 20.9065 9.13772 20.4118 9.12705Z" fill="#FFD1D6"/>
<path d="M24.1491 16.1416C18.9225 16.1509 9.06547 17.9828 8.89214 15.4136C8.60282 11.1324 14.7013 4.33254 17.8212 7.37779C20.2665 9.76173 22.2718 8.53776 24.1917 8.56576C25.985 8.59642 29.0143 8.67109 30.0236 7.52045C31.9582 5.31651 37.2021 6.72181 39.5913 15.1229C40.094 16.8882 28.8449 16.1336 24.1491 16.1416Z" fill="#5C5C5C"/>
<path d="M22.3145 30.4985C22.3145 29.7932 22.7091 29.2225 23.1958 29.2225C23.6824 29.2225 24.0771 29.7932 24.0771 30.4985C24.0771 31.2038 23.6824 31.7745 23.1958 31.7745C22.7091 31.7745 22.3145 31.2038 22.3145 30.4985Z" fill="#5C5C5C"/>
<path d="M34.9301 36.8917C34.9301 36.1877 35.3247 35.6157 35.8127 35.6157C36.298 35.6157 36.694 36.1877 36.694 36.8917C36.694 37.597 36.298 38.169 35.8127 38.169C35.3247 38.169 34.9301 37.597 34.9301 36.8917Z" fill="#5C5C5C"/>
<path d="M10.6147 37.121C10.6147 36.4157 11.0094 35.845 11.4961 35.845C11.9827 35.845 12.3774 36.4157 12.3774 37.121C12.3774 37.8263 11.9827 38.397 11.4961 38.397C11.0094 38.397 10.6147 37.8263 10.6147 37.121Z" fill="#5C5C5C"/>
<path d="M27.8196 40.3183C27.8196 39.6129 28.2142 39.041 28.7009 39.041C29.1875 39.041 29.5822 39.6129 29.5822 40.3183C29.5822 41.0222 29.1875 41.5942 28.7009 41.5942C28.2142 41.5942 27.8196 41.0222 27.8196 40.3183Z" fill="#5C5C5C"/>
<path d="M17.9558 40.5462C17.9558 39.8409 18.3505 39.2703 18.8371 39.2703C19.3238 39.2703 19.7184 39.8409 19.7184 40.5462C19.7184 41.2515 19.3238 41.8222 18.8371 41.8222C18.3505 41.8222 17.9558 41.2515 17.9558 40.5462Z" fill="#5C5C5C"/>
<path d="M8.81071 40.1356C7.7974 41.3676 7.23742 43.0115 7.50274 44.5808C7.76674 46.1501 8.93337 47.5861 10.4813 47.986C11.488 48.246 12.5613 48.07 13.5506 47.7541C14.3679 47.4927 15.1719 47.1247 15.7825 46.5261C16.8718 45.4595 17.1865 43.7328 16.6838 42.2969C16.1798 40.8622 14.9359 39.7409 13.4959 39.2343C11.912 38.677 9.86935 38.8503 8.81071 40.1356Z" fill="#424545"/>
<path d="M33.4328 39.7809C32.4195 41.0115 31.8595 42.6555 32.1248 44.2261C32.3901 45.7954 33.5554 47.2314 35.1034 47.63C36.1114 47.89 37.1833 47.7154 38.174 47.398C38.99 47.1367 39.7939 46.77 40.4046 46.1714C41.4939 45.1048 41.8086 43.3781 41.3059 41.9422C40.8019 40.5062 39.5579 39.3862 38.118 38.8783C36.5354 38.3223 34.4914 38.4943 33.4328 39.7809Z" fill="#424545"/>
<path d="M3.88562 39.2783C5.48024 31.6638 10.3414 26.5826 15.6093 24.7533C20.8785 22.9227 26.7317 22.4694 32.0329 25.348C37.77 28.4652 40.7153 32.0131 43.8726 39.5609C42.3513 38.7543 25.4744 14.4536 5.96956 36.0944C5.15759 36.997 4.41494 38.1343 3.88562 39.2783Z" fill="#5C5C5C"/>
<path d="M5.54688 15.2509C5.55221 16.7562 6.43752 18.2268 7.76948 18.9415C8.93212 19.5654 10.3094 19.6134 11.6307 19.6361C20.5451 19.7828 29.4702 19.3561 38.33 18.3601C38.974 18.2881 39.6286 18.2095 40.2193 17.9442C41.7499 17.2575 42.4712 15.5362 43.0525 13.9683C43.4139 15.3109 43.7752 16.6535 44.1365 17.9975C44.1992 18.2321 44.2632 18.4721 44.2378 18.7148C44.2085 19.0095 44.0498 19.2748 43.8765 19.5148C42.3126 21.6827 39.43 22.4534 36.754 22.628C33.2808 22.8547 29.8062 22.336 26.329 22.1827C20.9118 21.9454 15.4946 22.596 10.0734 22.596C8.96279 22.5947 7.82015 22.5614 6.80418 22.116C5.50688 21.5467 4.58557 20.3868 3.71892 19.2708C3.5496 19.0535 3.37493 18.8175 3.3616 18.5441C3.3496 18.2895 3.4816 18.0522 3.60959 17.8322C4.17625 16.8575 4.7669 15.8949 5.54688 15.2509Z" fill="#5C5C5C"/>
<path d="M3.88428 22.376C8.08017 25.0546 9.5068 29.3772 10.8881 31.9424C11.4134 32.9171 11.9587 34.1264 11.4134 35.0877C11.2214 35.425 10.9148 35.6757 10.5921 35.8783C9.28281 36.701 7.64152 36.8063 6.15356 36.4423C4.66693 36.077 3.3083 35.2784 2.04167 34.3837C1.79901 34.2131 1.55234 34.0304 1.39635 33.7704C1.09502 33.2731 1.37502 32.6451 1.34568 32.0558C1.12702 27.8226 2.14166 26.8439 3.88428 22.376Z" fill="#5C5C5C"/>
<path d="M44.2445 22.604C40.0487 25.3066 38.622 29.6652 37.2394 32.2518C36.7154 33.2344 36.1688 34.4544 36.7154 35.4237C36.9074 35.7637 37.2127 36.017 37.5354 36.221C38.846 37.0503 40.486 37.157 41.9739 36.789C43.4619 36.421 44.1325 35.617 45.3978 34.7144C45.6405 34.541 47.5911 27.1772 44.2445 22.604Z" fill="#5C5C5C"/>
<path d="M20.4398 11.4377C20.5558 10.1644 21.1998 8.94711 22.1904 8.13513C22.8331 7.60981 23.6531 7.24449 24.4824 7.31649C25.1077 7.37115 25.6877 7.66448 26.2023 8.02313C27.2663 8.75645 28.1583 10.2217 28.3276 11.499C27.569 11.9697 25.6103 12.7137 24.3477 12.6737C22.9651 12.6297 21.6651 12.091 20.4398 11.4377Z" fill="#2E2E2E"/>
<path d="M26.9676 5.98448C26.9703 5.76715 27.3009 5.51116 27.5129 5.55116C27.7263 5.59249 27.9023 5.75649 27.9983 5.94715C28.0942 6.14181 28.1182 6.36447 28.1089 6.57913C28.0982 6.83113 28.0276 7.10845 27.8183 7.25112C27.6569 7.36045 27.2063 7.23112 27.0409 7.12445C26.8769 7.01912 26.9663 6.08448 26.9676 5.98448Z" fill="black"/>
<path d="M21.3945 5.98448C21.3918 5.76715 21.0612 5.51116 20.8492 5.55116C20.6359 5.59249 20.4599 5.75649 20.3639 5.94715C20.2679 6.14181 20.2439 6.36447 20.2532 6.57913C20.2639 6.83113 20.3345 7.10845 20.5439 7.25112C20.7052 7.36045 21.1558 7.23112 21.3212 7.12445C21.4852 7.01912 21.3958 6.08448 21.3945 5.98448Z" fill="black"/>
</svg>
