<svg width="45" height="51" viewBox="0 0 45 51" fill="none" xmlns="http://www.w3.org/2000/svg">
<path d="M0.0579233 28.9478C0.16629 21.662 0.693004 21.6154 2.25424 17.8565C5.63504 9.71264 12.6814 3.64787 21.7263 3.64787C30.2885 3.64787 37.5831 9.08134 41.4982 16.57C42.6134 18.7008 44.2704 20.8921 44.0688 29.6106C43.7664 42.6638 34.5778 50.2709 21.7263 50.2709C8.87471 50.2709 -0.137389 42.0035 0.0579233 28.9478Z" fill="#424242"/>
<path d="M17.1522 4.67108C17.7923 3.55843 18.5912 2.53398 19.5187 1.6368C19.4645 2.04633 19.409 2.45711 19.3548 2.86664C20.1487 1.90898 21.0509 1.03574 22.0376 0.270874C21.812 1.05968 21.5864 1.8485 21.3609 2.63605C22.2707 1.78423 23.2876 1.04078 24.3813 0.430904C24.2931 1.30036 24.1444 2.16478 23.939 3.01533C24.564 2.51382 25.223 2.05389 25.9085 1.63806C25.8783 2.27944 25.8468 2.92082 25.8153 3.56221C26.2992 3.0922 26.8271 2.66629 27.3879 2.28826C27.2694 3.25475 27.151 4.22249 27.0313 5.18897C23.7727 4.89663 20.5003 4.76432 17.1522 4.67108Z" fill="#424242"/>
<path d="M4.47827 33.8747C4.47827 25.3225 12.481 18.3896 22.3525 18.3896C32.224 18.3896 40.2268 25.3225 40.2268 33.8747C40.2268 42.4281 32.224 49.3611 22.3525 49.3611C12.481 49.3611 4.47827 42.4281 4.47827 33.8747Z" fill="white"/>
<path d="M9.44299 19.8727C10.5254 22.2618 11.7225 24.6005 13.0279 26.8787C13.5231 27.7431 14.0398 28.8167 13.5231 29.6711C13.3417 29.971 13.0531 30.194 12.7482 30.3742C11.5095 31.1038 9.95963 31.1983 8.55338 30.8744C7.14712 30.5506 5.8631 29.8412 4.66729 29.0461C4.43795 28.8949 4.20484 28.7323 4.05615 28.5017C3.77137 28.0594 3.86839 27.4848 4.00826 26.9783C4.82858 24.0209 6.84723 21.3999 9.44299 19.8727Z" fill="#424242"/>
<path d="M34.1834 20.0856C33.101 22.4748 31.9039 24.8135 30.5985 27.0917C30.1033 27.9561 29.5867 29.0297 30.102 29.884C30.2847 30.1839 30.5733 30.407 30.8782 30.5872C32.1169 31.3167 33.6668 31.4112 35.073 31.0874C36.4793 30.7636 37.7633 30.0541 38.9591 29.259C39.1885 29.1078 39.4216 28.9453 39.5703 28.7147C39.8551 28.2724 39.758 27.6965 39.6182 27.1912C38.7978 24.2338 36.7792 21.6129 34.1834 20.0856Z" fill="#424242"/>
<path d="M7.66374 41.1189C6.70608 42.2668 6.17685 43.8003 6.42634 45.2633C6.6771 46.7275 7.77967 48.0657 9.24263 48.4387C10.194 48.6806 11.2071 48.5168 12.1433 48.222C12.9158 47.9788 13.6743 47.636 14.2527 47.0778C15.2809 46.0836 15.5796 44.472 15.1033 43.1338C14.6282 41.7956 13.4513 40.751 12.0904 40.2784C10.5947 39.758 8.66425 39.9193 7.66374 41.1189Z" fill="#FFD1D6"/>
<path d="M30.9336 40.7875C29.976 41.9354 29.4467 43.469 29.6975 44.9319C29.947 46.3961 31.0496 47.7356 32.5125 48.1073C33.4639 48.3493 34.4783 48.1867 35.4132 47.8906C36.1857 47.6474 36.9442 47.3046 37.5226 46.7464C38.5521 45.7522 38.8495 44.1418 38.3732 42.8036C37.8981 41.4642 36.7225 40.4196 35.3616 39.947C33.8646 39.4266 31.9341 39.5879 30.9336 40.7875Z" fill="#FFD1D6"/>
<path d="M24.8223 8.50296C24.8248 8.30008 25.1373 8.06067 25.3389 8.09973C25.5405 8.13879 25.7068 8.29 25.7976 8.47019C25.887 8.65039 25.9097 8.8583 25.9009 9.05865C25.8908 9.29429 25.824 9.55134 25.6262 9.68365C25.4737 9.78698 25.0478 9.66475 24.8928 9.56646C24.7378 9.46944 24.8223 8.59494 24.8223 8.50296Z" fill="#FF051A"/>
<path d="M19.5564 8.33789C19.5538 8.13375 19.2413 7.8956 19.0397 7.93466C18.8381 7.97246 18.6718 8.12367 18.5823 8.30386C18.4916 8.48532 18.4676 8.69197 18.4777 8.89358C18.4878 9.12796 18.5546 9.38627 18.7524 9.51858C18.9049 9.62065 19.3308 9.49968 19.4858 9.40139C19.642 9.30311 19.5564 8.42987 19.5564 8.33789Z" fill="#FF051A"/>
<path d="M18.9717 12.1333C18.9541 11.8372 20.543 10.8001 21.3167 10.2369C21.5032 10.102 21.6935 9.9672 21.8888 9.95712C22.1181 9.94451 22.3399 10.0982 22.5566 10.2507C23.3127 10.7825 25.0667 11.875 25.0806 12.3437C25.0919 12.7205 23.2446 14.5098 21.8497 15.0655C20.412 14.0196 19.0057 12.7293 18.9717 12.1333Z" fill="#FF6600"/>
<path d="M24.6132 8.41981C26.2928 6.45786 28.067 4.42787 30.4738 3.43745C30.9325 3.24969 31.4151 3.101 31.9115 3.08588C32.6298 3.06446 33.3254 3.32404 33.9768 3.62268C35.029 4.10277 36.0295 4.69501 36.9544 5.38427C35.5318 5.17636 34.1356 4.80085 32.8037 4.2691C33.8256 5.10957 34.8639 5.96643 35.6011 7.05766C34.1658 6.62419 32.7306 6.18946 31.2941 5.75599C32.1308 6.54229 32.8226 7.47601 33.3279 8.50045L29.622 6.76406C29.3574 6.64057 29.0864 6.51456 28.7941 6.49188C28.3178 6.4566 27.8717 6.69854 27.4559 6.92913C26.4302 7.49617 25.3881 8.03296 24.6132 8.41981Z" fill="#FFAE00"/>
<path d="M20.0466 8.30389C18.3656 6.34194 16.5927 4.31069 14.1847 3.32153C13.726 3.13378 13.2434 2.98383 12.7469 2.96997C12.0287 2.94854 11.3344 3.20812 10.6817 3.5055C9.62951 3.98685 8.629 4.57783 7.7041 5.26709C9.12673 5.06044 10.5229 4.68494 11.8548 4.15192C10.8329 4.9924 9.79458 5.84925 9.05743 6.94174C10.4927 6.50701 11.9292 6.07355 13.3644 5.64008C12.5277 6.42637 11.8359 7.36009 11.3306 8.38453L15.0365 6.64814C15.3011 6.52339 15.572 6.39865 15.8644 6.37597C16.3407 6.34068 16.7868 6.58262 17.2026 6.81321C18.2283 7.37899 19.2704 7.91704 20.0466 8.30389Z" fill="#FFAE00"/>
</svg>
